<svg xmlns="http://www.w3.org/2000/svg" viewBox="0 0 511 511"><path d="M222.2 225.9h-.5c-18 0-35.6 7.9-49.7 22.3-13.7 14-22.7 33.1-22.5 47.6-.1 7 1.9 12.7 6 16.9 7.9 8 21.7 8.7 36.4 8.7 3.6 0 7.5-.1 11.6-.1 4.6-.1 9.5-.1 14.5-.1V333c0 6.9 5.6 12.5 12.5 12.5h22.7v22.9c0 6.9 5.6 12.5 12.5 12.5h27.7c6.9 0 12.5-5.6 12.5-12.5v-22.9h22.7c6.9 0 12.5-5.6 12.5-12.5v-28c0-6.9-5.6-12.5-12.5-12.5h-22.7v-22.9c0-6.9-5.6-12.5-12.5-12.5h-13.3c-2.3-3.1-4.9-6.1-7.6-8.9-14-14.4-31.7-22.3-49.7-22.3h-.6zm-4.2 79v1.2c-5.2 0-10 .1-14.7.1-4 .1-7.8.1-11.3.1-10.6 0-22-.5-25.7-4.2-.8-.8-1.8-2.3-1.7-6.3v-.3c-.2-8.9 6-24.5 18.2-37 7.9-8.1 21.1-17.8 39-17.8h1.1c17.4 0 30.3 9.1 38.3 17.1-4.6 1.8-8 6.3-8 11.6v22.9h-22.7c-6.9.2-12.5 5.8-12.5 12.6zm85.3 2.5H326v23h-22.7c-6.9 0-12.5 5.6-12.5 12.5v22.9h-22.7v-22.9c0-6.9-5.6-12.5-12.5-12.5h-22.7v-23h22.7c6.9 0 12.5-5.6 12.5-12.5V272h22.7v23c0 6.8 5.6 12.4 12.5 12.4zm-25.7-72.3c4.2 4 9.9 6.2 16 6.2 7.4 0 14.7-3.3 20.1-8.9 10.1-10.7 10.4-26.9.6-36.1-4.2-4-9.9-6.2-16-6.2-7.4 0-14.7 3.3-20.1 8.9-10.1 10.6-10.4 26.8-.6 36.1zm11.5-25.9c2.5-2.7 5.9-4.2 9.2-4.2 1.6 0 3.8.4 5.7 2.1 3.8 3.6 3.2 10.3-1.2 15-2.5 2.7-5.9 4.2-9.2 4.2-1.6 0-3.8-.4-5.7-2.1-3.8-3.6-3.3-10.3 1.2-15zM253.7 164c-1.7-.4-3.5-.6-5.3-.6-11.5 0-21.7 8.6-24.7 20.8-3.5 14.3 4.3 28.5 17.4 31.7 1.7.4 3.5.6 5.3.6 11.5 0 21.7-8.6 24.7-20.8 3.5-14.3-4.3-28.6-17.4-31.7zm2.8 28.1c-1.3 5.4-5.6 9.4-10.1 9.4-.6 0-1.2-.1-1.8-.2-5-1.2-7.9-7.3-6.3-13.6 1.3-5.4 5.6-9.4 10.1-9.4.6 0 1.2.1 1.8.2 5 1.2 7.9 7.3 6.3 13.6zM191.4 165c-2.1 0-4.2.3-6.2.9-12.9 3.7-20.1 18.2-16.1 32.4 3.3 11.7 13.4 19.8 24.6 19.8 2.1 0 4.2-.3 6.2-.9 12.9-3.7 20.1-18.2 16.1-32.4-3.3-11.7-13.4-19.8-24.6-19.8zm4.4 37.8c-.7.2-1.4.3-2.1.3-4.4 0-8.7-3.8-10.2-9-1.8-6.2.8-12.4 5.8-13.9.7-.2 1.4-.3 2.1-.3 4.4 0 8.7 3.8 10.2 9 1.8 6.3-.8 12.5-5.8 13.9zm-52.4-8.3c-6.5 0-12.4 2.4-16.7 6.9-9.4 9.6-8.5 25.8 2 36.1 5.3 5.2 12.4 8.1 19.4 8.1 6.5 0 12.4-2.4 16.7-6.9 9.4-9.6 8.5-25.8-2-36.1-5.3-5.1-12.4-8.1-19.4-8.1zm10.7 33.8c-1.9 1.9-4.3 2.4-6 2.4-3.2 0-6.4-1.4-8.9-3.9-4.6-4.5-5.4-11.2-1.8-14.9 1.9-1.9 4.3-2.4 6-2.4 3.2 0 6.4 1.4 8.9 3.9 4.6 4.5 5.4 11.2 1.8 14.9z"/><path d="M433.5 410c-.1 0-.1 0 0 0V141c0-6.9-5.6-12.5-12.5-12.5H40.2c-6.9 0-12.5 5.6-12.5 12.5v256.4c0 6.9 5.6 12.5 12.5 12.5h51.3c4.1 0 7.7-3.2 7.8-7.3.1-4.2-3.3-7.7-7.5-7.7H42.7V143.5h375.7V410m43 20.1h-.3V205.7c0-4.1-3.2-7.7-7.3-7.8-4.2-.1-7.7 3.3-7.7 7.5V430"/><path d="M430.9 395H129.1c-4.1 0-7.7 3.2-7.8 7.3-.1 4.2 3.3 7.7 7.5 7.7h304.7m20.1 27.6H344.5c-4.1 0-7.5-3.4-7.5-7.5s3.4-7.5 7.5-7.5h109.1c4.1 0 7.5 3.4 7.5 7.5s-3.4 7.5-7.5 7.5z"/><path d="M400.6 459.9c6.6 0 15.6 2.1 14.8-11.7v-14c0-6.6-7-11.3-13.6-11.3"/><path d="M402.4 423.1l-43.6-.5h-324c-10.9 0-19.8-8.9-19.8-19.8V129.1c0-7.3 6-13.2 13.3-13.2h404.6c7.3 0 13.3 5.9 13.3 13.2V162c0 4.1 3.2 7.7 7.3 7.8 4.2.1 7.7-3.3 7.7-7.5V129c0-15.6-12.7-28.2-28.3-28.2h-11.4v-8c0-6.9-5.6-12.5-12.5-12.5h-61.2c-6.9 0-12.5 5.6-12.5 12.5v8h-14.8V66.7c0-18.6-15.1-33.7-33.7-33.7H174.6c-18.6 0-33.7 15.1-33.7 33.7v34.2H126v-8c0-6.9-5.6-12.5-12.5-12.5H52.2c-6.9 0-12.5 5.6-12.5 12.5v8H28.3C12.7 100.9 0 113.6 0 129.1v273.7c0 19.2 15.6 34.8 34.7 34.8h7.1v9.7c0 6.9 5.6 12.5 12.5 12.5h75.8c6.9 0 12.5-5.6 12.5-12.5v-9.7h175.6v9.7c0 6.9 5.6 12.5 12.5 12.5h46.5c1.4 0 2.8-.1 4.2-.1l25.1.1m-73.1-22.2h72.9v7.3h-72.9v-7.3zm-276.6 0h70.9v7.3H56.8v-7.3zM111 100.9H54.7v-5.6H111v5.6zm164 0h-88.9V78.2H275v22.7zm30.2 0H290V70.7c0-4.1-3.3-7.5-7.5-7.5H178.6c-4.1 0-7.5 3.4-7.5 7.5v30.2h-15.3V66.6c0-10.3 8.4-18.7 18.7-18.7h111.9c10.3 0 18.7 8.4 18.7 18.7v34.3zm101.2 0h-56.3v-5.6h56.3v5.6z"/></svg>