<svg height="640" viewBox="-64 0 480 480.001" width="640" xmlns="http://www.w3.org/2000/svg"><path d="M8 480h304a8 8 0 0 0 8-8V363.062c7.746-9.042 32-41.902 32-99.062s-24.254-90.02-32-99.059V136a8 8 0 0 0-8-8h-60.688l50.344-50.344c3.125-3.12 3.125-8.187 0-11.312L299.312 64l18.344-18.344a7.997 7.997 0 0 0 0-11.312l-32-32c-3.12-3.125-8.187-3.125-11.312 0L256 20.687l-2.344-2.343a7.997 7.997 0 0 0-11.312 0l-128 128c-3.125 3.125-3.125 8.191 0 11.312l2.344 2.344-26.344 26.344c-3.125 3.125-3.125 8.191 0 11.312l32 32a7.997 7.997 0 0 0 11.312 0L160 203.312l2.344 2.344c3.125 3.125 8.191 3.125 11.312 0l20.32-20.32c17.32 11.562 40.637 7.734 53.348-8.762C257.617 181.97 296 205.98 296 264c0 52.605-41.625 82.367-50.305 88H208v-56a8 8 0 0 0-8-8H56a8 8 0 0 0-8 8v32a8 8 0 0 0 8 8h104v16h-24a8 8 0 0 0-8 8v56H40c-22.082.027-39.973 17.922-40 40v16a8 8 0 0 0 8 8zM280 19.312L300.688 40 288 52.688 267.312 32zM128 212.688L107.312 192 128 171.312 148.688 192zM216 176c-13.254 0-24-10.746-24-24s10.746-24 24-24 24 10.746 24 24c-.016 13.25-10.75 23.984-24 24zm22.023-57.336c-15.835-10.512-36.886-8.406-50.324 5.035-13.441 13.438-15.547 34.489-5.035 50.324L168 188.688 131.312 152 248 35.312 284.688 72zM255.191 160a39.98 39.98 0 0 0 0-16H304v16zM312 264a112.715 112.715 0 0 0-37.766-88h34.145A139.283 139.283 0 0 1 336 264a139.303 139.303 0 0 1-27.617 88h-36.719A118.895 118.895 0 0 0 312 264zM64 320v-16h128v16zm128 16v56a8 8 0 0 1-16 0v-56zm-48 32h16v24c0 13.254 10.746 24 24 24s24-10.746 24-24v-24h96v48H144zM16 456c.016-13.25 10.75-23.984 24-24h264v32H16zm0 0"/><path d="M272 384h16v16h-16zm-32 0h16v16h-16zm0 0"/></svg>