<svg xmlns="http://www.w3.org/2000/svg" viewBox="0 0 505.993 505.993"><path d="M289.877 300.001a8.386 8.386 0 0 0 12.713-.515 8.396 8.396 0 0 0 1.594-7.128c-2.344-10-19.357-30.984-40.943-46.287a272.13 272.13 0 0 1-44.971-40.336c-12.299-13.697-37.074-36.672-64.824-36.672a23.363 23.363 0 0 0-25.18 25.18c0 31.402 35.852 47.102 86.586 65.885 28.411 10.524 57.788 21.405 75.025 39.873zm-69.278-55.648c-42.803-15.844-75.545-29.598-75.545-50.111 0-6.352 2.041-8.393 8.393-8.393 21.234 0 41.902 19.484 52.332 31.098a293.262 293.262 0 0 0 39.836 36.988c-8.393-3.422-16.852-6.557-25.016-9.582zm13.028 85.07c-29.373 14.693-75.963-8.168-76.434-8.398a8.404 8.404 0 0 0-11.254 3.766 8.394 8.394 0 0 0 3.754 11.254 153.186 153.186 0 0 0 60.393 15.033 69.1 69.1 0 0 0 31.049-6.639 8.394 8.394 0 0 0 3.736-11.253 8.393 8.393 0 0 0-11.244-3.763z"/><path d="M493.902 164.461c-16.352-48.9-46.239-78.16-70.07-101.493a148.132 148.132 0 0 1-31.91-38.116 40.092 40.092 0 0 1-2.02-5.363 25.056 25.056 0 0 0-24.16-18.295H27.172a25.605 25.605 0 0 0-4.979.485C10.747 3.928 2.374 13.791 2.013 25.451L1.9 28.547l-.338 9.228c-.097 2.565-.2 5.416-.302 8.197l-.112 3.035c-.049 1.367-.094 2.792-.143 4.206-.113 3.275-.222 6.622-.326 10.112-.027.919-.051 1.845-.077 2.78C.478 70.443.37 74.924.277 79.55l-.015.799c-1.384 70.249 1.658 171.606 35.677 253.642V479.62c.015 13.9 11.28 25.165 25.18 25.18h311.439c12.962-.095 23.766-9.95 25.049-22.848a125.392 125.392 0 0 1 37.098-76.055 203.514 203.514 0 0 0 63.618-102.126c.445-1.653.88-3.309 1.286-4.978.574-2.39 1.136-4.784 1.632-7.21a219.011 219.011 0 0 0 2.097-11.646c.215-1.437.387-2.891.576-4.339.505-3.83.913-7.697 1.225-11.6.115-1.442.223-2.884.312-4.337.308-4.971.52-9.977.52-15.056a250.423 250.423 0 0 0-12.069-80.144zM380.918 480.128a8.498 8.498 0 0 1-8.36 7.885H61.119a8.404 8.404 0 0 1-8.393-8.393V368.112c30.713 57.066 87.742 95.173 152.217 101.712a25.303 25.303 0 0 0 26.426-15.434 262.945 262.945 0 0 1 20.098-34.684c15.238-23.802 32.179-50.429 35.559-74.495.46-2.736.699-5.505.716-8.28a32.46 32.46 0 0 0-.349-4.587c-3.524-28.702-39.935-42.243-78.45-56.503-47.914-17.738-97.463-36.082-97.463-81.598a40.218 40.218 0 0 1 41.967-41.967c32.553 0 60.012 22.967 77.312 42.234a255.66 255.66 0 0 0 42.193 37.873 160.035 160.035 0 0 1 42.484 44.217 8.6 8.6 0 0 0 .377.787 38 38 0 0 1 5.504 17.578 143.41 143.41 0 0 1-25.643 85.086l-.168.266c-2.512 3.955-4.709 7.426-6.459 10.795-.159.307-.316.611-.467.918l-.127.254c-2.393 4.709-6.336 11.115-10.504 17.885a306.393 306.393 0 0 0-18.356 32.68 14.105 14.105 0 0 0 .705 13.664 14.317 14.317 0 0 0 12.36 6.32h6.377c8.48.021 16.955 0 25.434.061a7.513 7.513 0 0 0 6.533-3.049 8.393 8.393 0 0 0 1.758-6.992l-.012-.062a8.352 8.352 0 0 0-.721-2.102 131.377 131.377 0 0 1-11.139-26.721 34.704 34.704 0 0 1 2.758-24.529c1.467-2.934 3.66-6.389 6.201-10.389a158.4 158.4 0 0 0 28.258-94.086v-.139a51.652 51.652 0 0 0-5.893-22.311 98.383 98.383 0 0 1 5.074-11.455 69.768 69.768 0 0 0 9.213-33.242 73.69 73.69 0 0 0-13.787-37.893 59.184 59.184 0 0 1-11.393-29.254c0-37.18 10.984-50.361 41.967-50.361 23.967 0 25.18 48.943 25.18 58.754a27.267 27.267 0 0 0 6.557 14.721 98.263 98.263 0 0 1 18.623 60.82c0 42.43-33.889 81.102-48.459 95.758a35.253 35.253 0 0 0-10.295 25.025v.922a19.241 19.241 0 0 1-5.959 13.734 58.636 58.636 0 0 0-19.221 40.824c.008 2.104.188 4.204.537 6.278a26.384 26.384 0 0 0 13.299 18.828 26.783 26.783 0 0 0 23.393 1.398 263.688 263.688 0 0 0 27.151-13.144 142.408 142.408 0 0 0-13.174 45.901zM207.76 387.214a143.88 143.88 0 0 0 48.481-7.621c-5.771 10.45-12.487 21.023-18.912 31.059a271.83 271.83 0 0 0-21.463 37.303 8.424 8.424 0 0 1-8.889 5.205c-6.842-.835-13.4-2.013-19.767-3.416.894-21.532 7.896-47.95 20.55-62.53zm-3.952-16.709c-60.242 0-92.328-29.246-92.328-50.361 0-8.299 8.975-16.787 75.541-16.787 49.79 0 73.76 11.23 81.241 24.071.195.341.373.684.547 1.03.324.625.616 1.266.874 1.922.216.567.382 1.147.542 1.727.136.489.294.978.387 1.467a18.11 18.11 0 0 1 .343 3.357 45.498 45.498 0 0 1-.707 7.301c-2.431 10.713-13.712 26.273-66.44 26.273zm87.311 75.549c-3.16-.008-6.32-.011-9.479-.008h-5c2.459-4.988 5.48-10.32 8.623-15.603a110.827 110.827 0 0 0 5.856 15.611zM488.701 258.57a214.988 214.988 0 0 1-.273 3.801 215.451 215.451 0 0 1-1.223 11.538c-.104.772-.17 1.561-.283 2.33-.6 4.131-1.369 8.189-2.205 12.216a196.272 196.272 0 0 1-1.187 5.254 195.994 195.994 0 0 1-1.824 7.047 198.936 198.936 0 0 1-3.978 12.688c-.299.853-.569 1.722-.879 2.569a188.936 188.936 0 0 1-3.387 8.484c-.199.47-.404.938-.606 1.406a189.906 189.906 0 0 1-46.508 64.635c-.781.714-1.471 1.506-2.234 2.235a225.25 225.25 0 0 1-63.577 39.08 10.11 10.11 0 0 1-8.82-.545 9.668 9.668 0 0 1-4.906-6.889 21.815 21.815 0 0 1-.316-3.553 42.42 42.42 0 0 1 14.213-28.865 35.893 35.893 0 0 0 10.967-25.692v-.922a18.572 18.572 0 0 1 5.41-13.188c16.041-16.135 53.344-58.914 53.344-107.594a114.851 114.851 0 0 0-21.492-70.205c-1.545-2.291-3.467-5.139-3.688-5.336 0-48.008-15.295-75.541-41.967-75.541-52.078 0-58.754 35.885-58.754 67.148a73.69 73.69 0 0 0 13.787 37.893 59.184 59.184 0 0 1 11.393 29.254 53.566 53.566 0 0 1-7.479 25.807l-.877 1.779a190.66 190.66 0 0 0-38.697-36.717 239.004 239.004 0 0 1-39.406-35.389c-19.586-21.811-51.061-47.807-89.803-47.807a63.65 63.65 0 0 0-10.807.93l-6.303-15.102a22.243 22.243 0 0 1-1.693-8.574 19.962 19.962 0 0 1 6.779-15.627 35.876 35.876 0 0 0 12.643-23.971 28.74 28.74 0 0 1 24.562-21.59 18.804 18.804 0 0 1 12.543 3.736 42.998 42.998 0 0 0-29.33 38.232c0 12.512 11.533 25.18 33.574 25.18 22.697-1.123 40.844-19.271 41.967-41.967-.675-13.617-11.563-24.506-25.18-25.18-.997 0-1.947.084-2.92.128a30.799 30.799 0 0 0-30.654-16.915c-20.403 1.486-37.291 16.436-41.242 36.508a19.032 19.032 0 0 1-6.483 12.762 36.832 36.832 0 0 0-13.045 28.705 39.131 39.131 0 0 0 3 15.07l5.717 13.697c-20.257 9.576-32.815 30.347-31.881 52.734 0 52.051 49.767 75.148 95.127 92.364-.943-.008-1.839-.036-2.799-.036-58.475 0-92.328 5.492-92.328 33.574 0 25.796 29.053 61.272 92.994 66.445a139.329 139.329 0 0 0-17.087 58.74c-59.986-19.005-96.974-64.519-119.59-119.595-1.276-3.107-2.455-6.279-3.641-9.448-.95-2.535-1.958-5.033-2.852-7.601a365.586 365.586 0 0 1-5.37-16.756c-.62-2.092-1.161-4.221-1.748-6.329-1.145-4.126-2.273-8.261-3.299-12.44-.484-1.961-.931-3.934-1.389-5.904a487.154 487.154 0 0 1-3.039-13.959c-.29-1.438-.581-2.876-.859-4.317a551.36 551.36 0 0 1-3.162-17.912l-.076-.454a874.694 874.694 0 0 1-8.527-149.911l.034-1.695c.085-4.254.187-8.357.298-12.345.034-1.187.066-2.395.101-3.559.094-3.172.195-6.207.297-9.183.054-1.575.107-3.229.161-4.751l.086-2.33c.105-2.868.211-5.713.311-8.368l.341-9.335.113-3.092a8.334 8.334 0 0 1 8.381-8.066h338.565a8.45 8.45 0 0 1 8.058 6.246c5.479 18.615 20.684 33.5 38.291 50.734 34.348 33.631 77.098 75.484 77.098 169.643.002 4.712-.197 9.354-.482 13.963zm-276.5-190.229a9.815 9.815 0 0 1 8.393 8.393c-1.159 13.397-11.783 24.021-25.18 25.18-10.902 0-16.787-4.324-16.787-8.393 0-12.111 12.836-25.18 33.574-25.18z"/></svg>