<svg xmlns="http://www.w3.org/2000/svg" viewBox="0 0 512.001 512.001"><path d="M420 221.904h-54.637l-37.44-34.588a10.931 10.931 0 0 0-18.349 8.03v57.852l-28.139-28.139a10.861 10.861 0 0 0-7.729-3.202h-35.261l-34.192-33.885a10.902 10.902 0 0 0-11.901-2.325 10.903 10.903 0 0 0-6.725 10.089v57.367l-28.991-28.991a10.862 10.862 0 0 0-7.729-3.202H92a7.5 7.5 0 0 0 0 15.001h55.222l34.745 34.745a10.899 10.899 0 0 0 11.913 2.369 10.9 10.9 0 0 0 6.748-10.099v-57.428l28.447 28.191a10.863 10.863 0 0 0 7.696 3.168h35.25l33.894 33.893a10.902 10.902 0 0 0 11.913 2.369 10.898 10.898 0 0 0 6.748-10.099v-58.376l31.78 29.359a10.898 10.898 0 0 0 7.417 2.901H420a7.5 7.5 0 0 0 7.5-7.5 7.5 7.5 0 0 0-7.5-7.5zM299.917 387.717H167a7.5 7.5 0 0 0 0 15h132.917a7.5 7.5 0 0 0 0-15zm54.416 0h-19.416a7.5 7.5 0 0 0-7.5 7.5 7.5 7.5 0 0 0 7.5 7.5h19.416a7.5 7.5 0 0 0 0-15z"/><path d="M490.158 37.039H21.842C9.798 37.039 0 46.837 0 58.881v360.497c0 12.043 9.798 21.842 21.842 21.842h23.542v18.278c0 8.527 6.938 15.465 15.465 15.465h27.404c8.527 0 15.465-6.938 15.465-15.465V441.22h304.566v18.278c0 8.527 6.938 15.465 15.465 15.465h27.403c8.527 0 15.465-6.938 15.465-15.465V441.22h23.542c12.044 0 21.842-9.798 21.842-21.842V58.881c-.001-12.044-9.799-21.842-21.843-21.842zM88.717 459.498a.465.465 0 0 1-.465.465H60.849a.465.465 0 0 1-.465-.465V441.22h28.333v18.278zm362.899 0a.466.466 0 0 1-.465.465h-27.403a.465.465 0 0 1-.465-.465V441.22h28.333v18.278zM497 419.378a6.85 6.85 0 0 1-6.842 6.842H21.842A6.85 6.85 0 0 1 15 419.378V58.881a6.85 6.85 0 0 1 6.842-6.842h468.316A6.85 6.85 0 0 1 497 58.881v360.497z"/><path d="M466.867 70.582H110.833a7.5 7.5 0 0 0 0 15h352.623v262.91H48.544V85.582h27.289a7.5 7.5 0 0 0 0-15h-30.7c-6.39 0-11.588 5.199-11.588 11.589v269.732c0 6.39 5.199 11.589 11.588 11.589h421.734c6.39 0 11.589-5.199 11.589-11.589V82.172c0-6.39-5.199-11.59-11.589-11.59z"/><path d="M440.057 124.46c-1.403-9.768-7.791-17.271-17.087-20.071-11.597-3.494-20.164.799-25.646 5.181-5.481-4.382-14.051-8.674-25.646-5.181-9.296 2.8-15.684 10.303-17.087 20.071-1.778 12.381 4.484 30.936 27.395 45.88 3.438 2.242 8.613 5.215 10.823 6.485l.48.275c1.138.655 2.428 1 3.74 1h.59a7.493 7.493 0 0 0 3.74-1l.48-.275c2.21-1.27 7.386-4.243 10.823-6.485 22.911-14.943 29.173-33.498 27.395-45.88zm-35.59 33.317c-2.027 1.323-4.852 2.999-7.144 4.333-2.292-1.335-5.116-3.011-7.144-4.333-17.02-11.102-21.81-23.737-20.74-31.183.401-2.796 1.866-6.427 6.565-7.842 1.419-.427 2.729-.621 3.948-.621 4.992 0 8.487 3.234 11.874 6.885a7.498 7.498 0 0 0 10.996 0c4.216-4.543 8.597-8.441 15.822-6.265 4.698 1.416 6.164 5.046 6.565 7.842 1.069 7.446-3.721 20.082-20.742 31.184zm42.248 214.792c-12.489 0-22.649 10.16-22.649 22.649s10.16 22.649 22.649 22.649c12.488 0 22.648-10.16 22.648-22.649 0-12.49-10.16-22.649-22.648-22.649zm0 30.297c-4.218 0-7.649-3.431-7.649-7.649s3.432-7.649 7.649-7.649 7.648 3.431 7.648 7.649c0 4.219-3.43 7.649-7.648 7.649z"/></svg>