<svg height="512pt" viewBox="-51 0 512 512.005" width="512pt" xmlns="http://www.w3.org/2000/svg"><path d="M24.996 406.996c-1.023 0-24.992-.476-24.992-42.07 0-3.2 1.8-6.14 4.648-7.602.606-.316 60.153-31.281 61.168-75.101-3.175-11.47-23.195-90.672 20.555-117.414 1.348-.829 2.969-1.41 4.48-1.258.547 0 3.508.062 8.27.965 5.426 1.035 10.23 4.351 13.184 9.113a20.653 20.653 0 0 1 2.32 16.41l-2.781 9.934c5.035-2.45 10.734-5.75 16.195-10.078 5.906-4.676 14.062-4.446 19.414.546a132.282 132.282 0 0 1 4.625 4.547 15.282 15.282 0 0 1 4.36 11.016c-.067 4.082-1.715 7.867-4.641 10.668l-35.985 34.508v9.12l1.672-1.8c.426-.46.903-.867 1.426-1.227 1.516-1.074 25.07-18.082 38.348-27.664 4.336-3.125 9.797-4.277 14.984-3.148a18.79 18.79 0 0 1 12.313 9.059c4.777 8.406 3.004 18.62-4.106 24.464-3.328 2.73-7.098 5.524-10.93 8.34-5.207 3.832-11.671 8.602-15.957 12.883 6.368-.887 16.871-2.762 32.996-6.34a16.11 16.11 0 0 1 13.602 3.176c3.918 3.148 6.172 7.852 6.172 12.926v9.543c0 7.062-4.453 13.336-11.086 15.597l-6.512 2.227 17.578 17.902c3.118 3.184 5.055 7.176 5.61 11.555l.398 3.2c.95 7.722-2.492 15.155-8.957 19.394-6.289 4.125-14.199 4.312-20.66.515-13.89-8.183-33.289-21.847-47.941-40.945-3.13-1.133-10.536-3.148-17.97-.254-7.484 2.91-13.55 10.164-18.023 21.555-18.011 45.883-70.132 55.226-72.351 55.601-.469.094-.95.137-1.426.137zm-7.781-37.11c.851 14.087 5.289 18.907 7.68 19.891 7.543-1.675 44.96-11.554 57.992-44.73 6.34-16.149 15.758-26.684 28.011-31.336 16.915-6.418 32.532 1.367 33.18 1.7a8.516 8.516 0 0 1 2.992 2.542c13.094 17.774 31.309 30.617 44.29 38.262.886.527 1.773.504 2.644-.078.488-.313 1.598-1.254 1.375-3.063l-.383-3.09a3.111 3.111 0 0 0-.863-1.765l-26.77-27.274a8.521 8.521 0 0 1-2.234-7.824c.008-.023.11-.484.117-.52a8.541 8.541 0 0 1 5.547-6.136l18.945-6.477-.418-8.207c-37.937 8.364-44.039 7.34-46.36 6.946a12.87 12.87 0 0 1-8.765-5.872c-1.93-3.097-2.441-6.859-1.406-10.316 3.191-10.668 15.102-19.437 26.621-27.922 3.567-2.625 7.102-5.222 10.207-7.773.64-.528.742-1.75.223-2.66-.36-.633-.727-.907-1.203-1.016-.332-.078-.848-.078-1.375.305-26.309 19.004-34.817 25.14-37.778 27.238l-14.214 15.32a8.49 8.49 0 0 1-2.391 1.797 9.61 9.61 0 0 1-9.473-.375 9.668 9.668 0 0 1-4.64-8.3v-31.087c0-1.144.23-2.28.683-3.336.453-1.066 1.485-2.894 2.32-3.695l36.891-35.379a106.93 106.93 0 0 0-1.351-1.324c-10 7.629-20.375 12.398-27.457 15.086-4.508 1.727-9.508.754-13.075-2.508a12.91 12.91 0 0 1-3.73-13.055l5.164-18.414a3.582 3.582 0 0 0-.39-2.816c-.317-.512-.9-1.16-1.872-1.34a45.928 45.928 0 0 0-2.84-.453c-26.41 19.395-16.71 76.816-10.546 97.852.23.773.347 1.593.347 2.406-.008 47.058-49.703 79.555-65.695 88.797zm264.39-20.046a8.69 8.69 0 0 1-1.14-.074c-4.68-.625-7.953-4.926-7.332-9.594C296.59 164.945 164.719 112.5 159.093 110.355c-4.394-1.68-6.613-6.605-4.937-11.007a8.532 8.532 0 0 1 10.989-4.957c1.503.57 150.203 59.058 124.91 248.043-.57 4.293-4.235 7.406-8.45 7.406zm0 0"/><path d="M249.395 512.004c-3.903 0-7.895-.406-11.965-1.313-23.004-5.128-41.754-24.867-55.739-58.664-12.714-30.73-26.152-71.593-36.879-112.129a8.533 8.533 0 0 1 3.977-9.574 8.544 8.544 0 0 1 10.274 1.324c11.398 11.29 23.867 19.582 32.324 24.559 1.183.7 2.175.367 2.789-.043.547-.36 1.433-1.203 1.246-2.816l-.426-3.387a3.043 3.043 0 0 0-.863-1.758l-26.77-27.273a8.524 8.524 0 0 1-2.234-7.825c.64-2.902 2.851-5.69 5.664-6.656l18.945-6.476-.418-8.207c-37.93 8.351-44.047 7.328-46.351 6.945a12.892 12.892 0 0 1-8.766-5.871c-1.926-3.098-2.437-6.863-1.406-10.317 3.191-10.668 15.101-19.441 26.621-27.921 3.57-2.63 7.102-5.223 10.207-7.774.64-.527.734-1.75.215-2.664-.418-.73-.88-.937-1.203-1.016a1.68 1.68 0 0 0-1.367.301c-26.297 18.996-34.805 25.137-37.778 27.239l-14.215 15.324a8.62 8.62 0 0 1-2.379 1.8 9.62 9.62 0 0 1-9.472-.374 9.675 9.675 0 0 1-4.645-8.305v-31.067c0-1.144.23-2.28.684-3.336.453-1.066 1.484-2.894 2.32-3.695l36.89-35.379c-.445-.453-.894-.886-1.347-1.324-9.984 7.621-20.36 12.39-27.433 15.086-4.524 1.715-9.543.762-13.11-2.508-3.617-3.308-5.043-8.32-3.71-13.055l5.163-18.414a3.561 3.561 0 0 0-.402-2.816c-.316-.512-.895-1.16-1.867-1.34a45.995 45.995 0 0 0-2.844-.453c-8.781 6.426-14.316 17.441-16.496 32.793a8.536 8.536 0 0 1-7.133 7.238 8.516 8.516 0 0 1-8.992-4.71C42.969 179.91 17.496 111.601 43.836 61.214c3.203-6.13 7.945-11.922 14.098-17.223 83.523-71.875 182.168-55.27 277.757 46.797 51.461 54.938 76.258 115.762 73.707 180.793-4.793 122.309-102.925 213.211-107.097 217.023-8.34 7.614-28.586 23.399-52.906 23.399zm-80.766-150.219c8.992 30.754 19.137 60.281 28.832 83.711 11.734 28.356 26.426 44.692 43.68 48.54 21.683 4.82 41.949-11.009 49.656-18.04.973-.887 97.031-89.84 101.555-205.086 2.363-60.297-20.891-116.972-69.114-168.457C233.574 6.73 145.691-9.004 69.07 56.93c-4.574 3.941-7.882 7.93-10.113 12.195-18.644 35.668-6.39 83.762 7.512 118.39 4.64-9.84 11.297-17.445 19.914-22.706 1.351-.829 2.96-1.41 4.48-1.258.547 0 3.508.062 8.262.957 5.434 1.031 10.238 4.351 13.191 9.113a20.624 20.624 0 0 1 2.32 16.418l-2.78 9.934c5.035-2.45 10.734-5.743 16.195-10.07 5.914-4.676 14.07-4.446 19.414.546 1.5 1.399 3.02 2.883 4.539 4.446 2.875 2.96 4.48 7.007 4.414 11.109-.078 4.098-1.734 7.91-4.68 10.734l-35.914 34.442v9.12l1.664-1.788c.426-.461.903-.88 1.426-1.23 1.527-1.083 25.07-18.083 38.34-27.665a18.86 18.86 0 0 1 14.984-3.148 18.764 18.764 0 0 1 12.313 9.062c4.777 8.403 3.012 18.61-4.106 24.465-3.328 2.738-7.097 5.52-10.93 8.344-5.206 3.832-11.675 8.601-15.956 12.894 6.363-.886 16.867-2.765 32.996-6.34a16.152 16.152 0 0 1 13.61 3.172c3.917 3.149 6.163 7.852 6.163 12.93v9.54c0 7.066-4.457 13.339-11.094 15.597l-6.511 2.23 17.578 17.903c3.113 3.18 5.05 7.175 5.605 11.55l.438 3.493c.93 7.629-2.457 14.968-8.832 19.14-6.317 4.137-14.278 4.317-20.805.477a202.266 202.266 0 0 1-14.078-9.14zm0 0"/><path d="M249.316 477.855c-16.535 0-28.738-21.144-36.078-38.886-4.797-11.586-9.726-24.754-14.66-39.114a8.545 8.545 0 0 1 5.3-10.847c4.446-1.535 9.31.851 10.837 5.3 4.812 14.036 9.617 26.86 14.285 38.133 7.61 18.407 16.137 28.34 20.3 28.34 3.74 0 11.282-3.441 18.473-10 3.637-3.277 86.743-79.293 90.614-178.082.187-4.707 4.191-8.437 8.867-8.191a8.524 8.524 0 0 1 8.191 8.86c-4.086 104.112-86.73 181.507-96.144 190-9.93 9.077-21.145 14.487-29.985 14.487zm0 0"/></svg>