<svg xmlns="http://www.w3.org/2000/svg" viewBox="0 0 866 583"><path d="M308.2 184.9c0 15.7 12.7 28.4 28.4 28.5 15.7 0 28.4-12.7 28.5-28.4 0-15.7-12.7-28.4-28.4-28.5-15.8-.1-28.5 12.7-28.5 28.4zm71.1 163.5c0 11.8 9.6 21.3 21.3 21.3s21.3-9.6 21.3-21.3-9.6-21.3-21.3-21.3-21.3 9.6-21.3 21.3zm85.3-99.5c0 11.8 9.5 21.3 21.3 21.3s21.3-9.5 21.3-21.3-9.5-21.3-21.3-21.3c-11.7-.1-21.3 9.5-21.3 21.3z"/><path d="M244.6 423.3l30.4-25.9 28.5 2.5 23.4 44.7 46.5-19.5 41.5 28.7L447 415l50.1 6.1 10.4-49.4 47.2-17.8-13.7-48.5 33.5-37.7-34.7-36.6 12.1-49-17.4-6 25.2-21.4 26.1 8.9-14.7 59.2 41.9 44.3-40.5 45.6 16.6 58.7-57 21.6-12.6 59.6-60.5-7.4-38.9 47-50.1-34.7-56.3 23.5-28.3-54-40.8-3.7zm-22.4-64.4l-48.7-31.3 28.4-54-30.1-53L222 186l-2-60.9 60.5-7.3L306.9 63l57 21.7 49-36.3 40.4 45.7 60.2-9.4 5.3 21.4-24.2 20.6-2.4-9.9-49.8 7.8L409 86.8l-40.5 30-47.1-17.9-21.9 45.4-50.1 6 1.7 50.4-41.5 28.6 24.9 43.9-23.5 44.6 34 21.8-22.8 19.3zM574 82.1L190 409.2c-6.1 4.9-7.1 13.9-2.2 20 4.9 6.1 13.9 7.1 20 2.2.2-.2.5-.4.7-.6l384-327.1c6.1-4.9 7.1-13.9 2.2-20-4.9-6.1-13.9-7.1-20-2.2-.2.2-.5.4-.7.6zM87.4 112c0 8.1-1.9 14.1-5.7 17.9-3.8 3.8-8.8 5.7-15 5.7s-11.2-1.9-15-5.7c-3.8-3.8-5.7-9.8-5.7-17.9V25.3H29.4V112c0 11.4 3 20.5 9 27.2 6 6.7 15.4 10 28.3 10s22.3-3.3 28.3-10 9-15.7 9-27.2V25.3H87.4V112zm71 7.2h-1.5l-25.1-93.9h-17.2l35.8 124h14.4l35.8-124h-17.2zM704.8 340c0-13.7-11.2-24.9-24.9-24.9S655 326.3 655 340v154.9c-6.4 6.5-10 15.2-10 24.2 0 19.2 15.6 34.8 34.8 34.8 19.2 0 34.8-15.6 34.8-34.8 0-9-3.6-17.7-10-24.2V340h.2zm-24.9 204c-13.7 0-24.9-11.2-24.9-24.9 0-7 2.9-13.6 8.3-18.4 1-.9 1.6-2.3 1.6-3.7V340c0-8.2 6.7-14.9 14.9-14.9s14.9 6.7 14.9 14.9v157c0 1.4.6 2.8 1.6 3.7 5.4 4.8 8.3 11.4 8.3 18.4.2 13.7-11 24.9-24.7 24.9z"/><path d="M684.9 505.1v-85.5c0-2.8-2.2-5-5-5s-5 2.2-5 5v85.5c-5.8 2.1-10 7.5-10 14 0 8.2 6.7 14.9 14.9 14.9s14.9-6.7 14.9-14.9c.2-6.5-4-11.9-9.8-14zm-5 19c-2.7 0-5-2.2-5-5 0-2.7 2.2-5 5-5 2.7 0 5 2.2 5 5s-2.2 5-5 5zm-39.8-49.8h-29.9c-2.8 0-5 2.2-5 5s2.2 5 5 5h29.9c2.8 0 5-2.2 5-5 0-2.7-2.2-5-5-5zm0-19.9h-10c-2.8 0-5 2.2-5 5s2.2 5 5 5h10c2.8 0 5-2.2 5-5 0-2.7-2.2-5-5-5zm0-19.9h-10c-2.8 0-5 2.2-5 5s2.2 5 5 5h10c2.8 0 5-2.2 5-5 0-2.7-2.2-5-5-5zm-29.8-9.9h29.9c2.8 0 5-2.2 5-5s-2.2-5-5-5h-29.9c-2.8 0-5 2.2-5 5s2.2 5 5 5zm0-59.7h29.9c2.8 0 5-2.2 5-5s-2.2-5-5-5h-29.9c-2.8 0-5 2.2-5 5s2.2 5 5 5zm29.8 29.8h-10c-2.8 0-5 2.2-5 5s2.2 5 5 5h10c2.8 0 5-2.2 5-5s-2.2-5-5-5zm0-19.9h-10c-2.8 0-5 2.2-5 5s2.2 5 5 5h10c2.8 0 5-2.2 5-5s-2.2-5-5-5zm109.5 19.9h10c8.2 0 14.9 6.7 14.9 14.9 0 2.8 2.2 5 5 5s5-2.2 5-5c0-13.7-11.2-24.9-24.9-24.9h-10c-13.7 0-24.9 11.2-24.9 24.9v39.8c0 13.7 11.2 24.9 24.9 24.9h10c13.7 0 24.9-11.2 24.9-24.9 0-2.8-2.2-5-5-5s-5 2.2-5 5c0 8.2-6.7 14.9-14.9 14.9h-10c-8.2 0-14.9-6.7-14.9-14.9v-39.8c0-8.2 6.7-14.9 14.9-14.9zm59.7-9.9c-8.2 0-14.9 6.7-14.9 14.9s6.7 14.9 14.9 14.9 14.9-6.7 14.9-14.9-6.7-14.9-14.9-14.9zm0 19.9c-2.7 0-5-2.2-5-5 0-2.7 2.2-5 5-5 2.7 0 5 2.2 5 5 0 2.7-2.2 5-5 5z"/></svg>