<svg xmlns="http://www.w3.org/2000/svg" viewBox="0 0 496 496"><path d="M467.816 400l7.032-17.584A71.798 71.798 0 0 0 480 355.672V237.776c0-4.312-.392-8.648-1.16-12.88l-12.736-70.024c-1.752-9.656-6.344-18.432-13.288-25.36L412.28 88.976c-3.488-3.488-7.72-5.896-12.28-7.368V0H0v384h392v16h-24v96h128v-96h-28.184zM368 16h16v64.768c-6.304 1.4-11.816 4.776-16 9.4V16zm0 115.096c.344.384.608.816.976 1.184L384 147.312v113.376l-16-16V131.096zm21.656 157.872c4.528 4.536 10.56 7.032 16.976 7.032H432v-16h-23.056l12.52-25.048A24.015 24.015 0 0 0 424 244.224v-69.6c0-6.408-2.496-12.44-7.032-16.968l-36.688-36.688a14.738 14.738 0 0 1-4.28-10.344C376 102.56 382.56 96 390.632 96c3.904 0 7.584 1.52 10.344 4.28l40.536 40.536a31.854 31.854 0 0 1 8.856 16.904l12.736 70.024c.592 3.304.896 6.672.896 10.032v117.896c0 7.16-1.344 14.16-4.008 20.808L450.584 400H408v-38.064c0-8.432-3.416-16.672-9.376-22.624l-66.344-66.344a14.738 14.738 0 0 1-4.28-10.344c0-8.064 6.56-14.624 14.632-14.624 3.904 0 7.584 1.52 10.344 4.28l36.68 36.688zM400 262.112v-98.8l5.656 5.656a8.075 8.075 0 0 1 2.344 5.656v69.6a8.093 8.093 0 0 1-.84 3.568l-7.16 14.32zM16 368V16h16v320h280v-16H48V16h304v217.608c-3-.968-6.128-1.608-9.368-1.608-7.408 0-14.112 2.752-19.416 7.136-.832-1.656-1.704-3.296-2.744-4.856l-5.928-8.896c8.464-9.288 13.456-21.488 13.456-34.392 0-5.504-.88-10.944-2.624-16.16l-6.368-19.112c5.696-8.352 8.992-18.304 8.992-28.728 0-5.504-.88-10.944-2.624-16.16l-6.368-19.112C324.704 83.368 328 73.416 328 62.992c0-5.504-.88-10.944-2.624-16.16l-5.792-17.368a8.005 8.005 0 0 0-7.024-5.448c-3.168-.248-6.272 1.504-7.72 4.4l-5.304 10.624a73.991 73.991 0 0 1-28.152 30.4A74.189 74.189 0 0 1 233.264 80H224V52.688l-24-24-24 24V80h-9.264a74.146 74.146 0 0 1-38.12-10.56 73.991 73.991 0 0 1-28.152-30.4l-5.312-10.616c-1.456-2.896-4.488-4.648-7.72-4.4a7.994 7.994 0 0 0-7.024 5.448L74.616 46.84A51.008 51.008 0 0 0 72 62.992c0 10.424 3.296 20.376 8.992 28.736l-6.368 19.112A50.791 50.791 0 0 0 72 126.992c0 10.424 3.296 20.376 8.992 28.736l-6.368 19.112A50.791 50.791 0 0 0 72 190.992c0 12.904 4.992 25.104 13.456 34.392l-5.928 8.896A44.762 44.762 0 0 0 72 259.16C72 283.88 92.12 304 116.84 304c13.568 0 26.976-2.168 39.856-6.472l25.136-8.384 18.16 18.16 18.16-18.16 25.136 8.384A125.638 125.638 0 0 0 283.16 304c15.624 0 29.392-8.04 37.424-20.2.144.152.248.328.392.48L352 315.312V320h-24v16h40v-4.688l19.312 19.312A16.087 16.087 0 0 1 392 361.936V368H16zm278.32-146.536A140.99 140.99 0 0 1 224.504 240H224v-16h9.264c16.32 0 32.344-4.44 46.352-12.84a89.906 89.906 0 0 0 30.768-30.68A34.913 34.913 0 0 1 312 190.992c0 12.56-6.776 24.232-17.68 30.472zm17.672 37.696C312 275.064 299.064 288 283.16 288c-11.84 0-23.552-1.896-34.8-5.64L224 274.24V256h.504c27.152 0 53.952-7.104 77.528-20.528l5.12 7.688a28.777 28.777 0 0 1 4.84 16zM224 208v-16h.504c24.328 0 48.368-5.736 70.072-16.584-6.024 8.904-13.888 16.44-23.192 22.024a74.189 74.189 0 0 1-38.12 10.56H224zm70.32-50.536A140.99 140.99 0 0 1 224.504 176H224v-16h9.264c16.32 0 32.344-4.44 46.352-12.84a89.906 89.906 0 0 0 30.768-30.68A34.913 34.913 0 0 1 312 126.992c0 12.56-6.776 24.232-17.68 30.472zM224 144v-16h.504c24.328 0 48.368-5.736 70.072-16.584-6.024 8.904-13.888 16.44-23.192 22.024a74.189 74.189 0 0 1-38.12 10.56H224zm70.32-50.536A140.99 140.99 0 0 1 224.504 112H224V96h9.264c16.32 0 32.344-4.44 46.352-12.84a89.906 89.906 0 0 0 30.768-30.68A34.913 34.913 0 0 1 312 62.992c0 12.56-6.776 24.232-17.68 30.472zM208 59.312v217.376l-8 8-8-8V59.312l8-8 8 8zM175.496 240a141.012 141.012 0 0 1-69.816-18.536C94.776 215.224 88 203.552 88 190.992c0-3.576.544-7.112 1.616-10.512a89.976 89.976 0 0 0 30.768 30.68A90.143 90.143 0 0 0 166.736 224H176v16h-.504zm.504 16v18.24l-24.352 8.112A109.837 109.837 0 0 1 116.84 288C100.936 288 88 275.064 88 259.16a28.758 28.758 0 0 1 4.84-16l5.12-7.688A156.989 156.989 0 0 0 175.496 256H176zm-9.264-48a74.146 74.146 0 0 1-38.12-10.56c-9.304-5.584-17.168-13.12-23.192-22.024C127.128 186.264 151.16 192 175.496 192H176v16h-9.264zm8.76-32a141.012 141.012 0 0 1-69.816-18.536C94.776 151.224 88 139.552 88 126.992c0-3.576.544-7.112 1.616-10.512a89.976 89.976 0 0 0 30.768 30.68A90.143 90.143 0 0 0 166.736 160H176v16h-.504zm-8.76-32a74.146 74.146 0 0 1-38.12-10.56c-9.304-5.584-17.168-13.12-23.192-22.024C127.128 122.264 151.16 128 175.496 128H176v16h-9.264zm8.76-32a141.012 141.012 0 0 1-69.816-18.536C94.776 87.224 88 75.552 88 62.992c0-3.576.544-7.112 1.616-10.512a89.976 89.976 0 0 0 30.768 30.68A90.143 90.143 0 0 0 166.736 96H176v16h-.504zM480 480h-96v-64h96v64z"/></svg>