<svg version="1.1" id="Слой_1" xmlns="http://www.w3.org/2000/svg" x="0" y="0" viewBox="0 0 1080 1080" xml:space="preserve"><style>.st0{stroke-width:12.7085}.st0,.st3,.st4{fill:none;stroke:#000;stroke-linecap:round;stroke-linejoin:round;stroke-miterlimit:10}.st3{display:none;stroke-width:12.7085}.st4{stroke-width:10.893}</style><path class="st0" d="M584.4 589.1l-18.6-13.5-211.3 42.5m.6.3l29.1 38.2 89.4-17.6M541 470.9l26.6-47.2 36 18.7-52.9-85.6-59.9-93.4"/><path class="st0" d="M492.1 615.4l-18.5-24.5 35.4-63m40.2 22l-32.1 60.3m88-165.7l-6 11.3m6-198.9l-120 197.2M567.4 256L463.9 425.9l22.5 29.9m76.2 101.4l26.5 35.3M463.9 425.9l43.1 57.3m-49.5-218.5l110.1 159M232.4 250.3l31.4 27.2 452.1-32.1-45.4-24.8z"/><path class="st0" d="M236.8 254.1l-15.5 1.5 20.9 19.6 15.7-2.8m444.2-35.6l8.7-4.3-17.8-11.9-8.4 5.5"/><path d="M420.6 664.8c0 5.2-4.2 9.4-9.4 9.4s-9.4-4.2-9.4-9.4c0-2.6 1-4.9 2.7-6.6 1.7-1.7 4-2.7 6.6-2.7 5.3-.1 9.5 4.1 9.5 9.3z" fill="none" stroke="#000" stroke-width="10.893" stroke-linecap="square" stroke-linejoin="round" stroke-miterlimit="10"/><path d="M414.3 647.5l-12 3.5-27.9-36 11.2-4.5z"/><path fill="none" stroke="#000" stroke-width="12.709" stroke-linecap="square" stroke-linejoin="round" stroke-miterlimit="10" d="M767.4 513.5v24.4"/><path class="st3" d="M-244.2 386.7l153.1 57.5 301.4-125.9-157.6-38.2zm0 128.6l153.1 57.5 301.4-125.9-157.6-38.2z"/><path class="st3" d="M-242.8 524.3l151.1 70.6 302-145-155.9-37.7z"/><path class="st0" d="M580.4 565.2v178.2M456.7 500.3v165.8M898.3 476v159"/><circle class="st4" cx="568" cy="751.4" r="13.6"/><circle class="st4" cx="445.8" cy="672.9" r="11.6"/><circle class="st4" cx="889.4" cy="642.3" r="11.6"/><path class="st0" d="M454.8 498.3l107.8 58.9 15.7 8.5L896.5 474l-130.4-64.9-259 74.3zm1.9 132.5L578.3 698l318.2-91.8-130.4-64.9z"/></svg>