<?xml version="1.0" encoding="utf-8"?>
<!-- Generator: Adobe Illustrator 22.1.0, SVG Export Plug-In . SVG Version: 6.00 Build 0)  -->
<svg version="1.1" id="Слой_1" xmlns="http://www.w3.org/2000/svg" xmlns:xlink="http://www.w3.org/1999/xlink" x="0px" y="0px"
	 viewBox="0 0 866 583" style="enable-background:new 0 0 866 583;" xml:space="preserve">
<path d="M308.2,184.9c0,15.7,12.7,28.4,28.4,28.5c15.7,0,28.4-12.7,28.5-28.4c0,0,0,0,0,0c0-15.7-12.7-28.4-28.4-28.5
	C320.9,156.4,308.2,169.2,308.2,184.9C308.2,184.9,308.2,184.9,308.2,184.9z"/>
<path d="M379.3,348.4c0,11.8,9.6,21.3,21.3,21.3s21.3-9.6,21.3-21.3s-9.6-21.3-21.3-21.3S379.3,336.7,379.3,348.4z"/>
<path d="M464.6,248.9c0,11.8,9.5,21.3,21.3,21.3c11.8,0,21.3-9.5,21.3-21.3c0,0,0,0,0,0c0-11.8-9.5-21.3-21.3-21.3
	C474.2,227.5,464.6,237.1,464.6,248.9C464.6,248.9,464.6,248.9,464.6,248.9z"/>
<path d="M244.6,423.3l30.4-25.9l28.5,2.5l23.4,44.7l46.5-19.5l41.5,28.7L447,415l50.1,6.1l10.4-49.4l47.2-17.8L541,305.4l33.5-37.7
	l-34.7-36.6l12.1-49l-17.4-6l25.2-21.4l26.1,8.9l-14.7,59.2l41.9,44.3l-40.5,45.6l16.6,58.7l-57,21.6l-12.6,59.6l-60.5-7.4l-38.9,47
	l-50.1-34.7l-56.3,23.5l-28.3-54L244.6,423.3L244.6,423.3z M222.2,358.9l-48.7-31.3l28.4-54l-30.1-53l50.2-34.6l-2-60.9l60.5-7.3
	L306.9,63l57,21.7l49-36.3l40.4,45.7l60.2-9.4l5.3,21.4l-24.2,20.6l-2.4-9.9l-49.8,7.8l-33.4-37.8l-40.5,30l-47.1-17.9l-21.9,45.4
	l-50.1,6l1.7,50.4l-41.5,28.6l24.9,43.9l-23.5,44.6l34,21.8L222.2,358.9L222.2,358.9z M574,82.1L190,409.2c-6.1,4.9-7.1,13.9-2.2,20
	c4.9,6.1,13.9,7.1,20,2.2c0.2-0.2,0.5-0.4,0.7-0.6l384-327.1c6.1-4.9,7.1-13.9,2.2-20c-4.9-6.1-13.9-7.1-20-2.2
	C574.5,81.7,574.2,81.9,574,82.1L574,82.1z"/>
<path d="M87.4,112c0,8.1-1.9,14.1-5.7,17.9c-3.8,3.8-8.8,5.7-15,5.7s-11.2-1.9-15-5.7c-3.8-3.8-5.7-9.8-5.7-17.9V25.3H29.4V112
	c0,11.4,3,20.5,9,27.2c6,6.7,15.4,10,28.3,10c12.9,0,22.3-3.3,28.3-10c6-6.7,9-15.7,9-27.2V25.3H87.4L87.4,112z"/>
<polygon points="158.4,119.2 156.9,119.2 131.8,25.3 114.6,25.3 150.4,149.3 164.8,149.3 200.6,25.3 183.4,25.3 "/>
<g>
	<g>
		<g>
			<path d="M704.8,340c0-13.7-11.2-24.9-24.9-24.9c-13.7,0-24.9,11.2-24.9,24.9v154.9c-6.4,6.5-10,15.2-10,24.2
				c0,19.2,15.6,34.8,34.8,34.8c19.2,0,34.8-15.6,34.8-34.8c0-9-3.6-17.7-10-24.2V340L704.8,340z M679.9,544
				c-13.7,0-24.9-11.2-24.9-24.9c0-7,2.9-13.6,8.3-18.4c1-0.9,1.6-2.3,1.6-3.7V340c0-8.2,6.7-14.9,14.9-14.9s14.9,6.7,14.9,14.9v157
				c0,1.4,0.6,2.8,1.6,3.7c5.4,4.8,8.3,11.4,8.3,18.4C704.8,532.8,693.6,544,679.9,544z"/>
			<path d="M684.9,505.1v-85.5c0-2.8-2.2-5-5-5c-2.8,0-5,2.2-5,5v85.5c-5.8,2.1-10,7.5-10,14c0,8.2,6.7,14.9,14.9,14.9
				s14.9-6.7,14.9-14.9C694.9,512.6,690.7,507.2,684.9,505.1z M679.9,524.1c-2.7,0-5-2.2-5-5c0-2.7,2.2-5,5-5c2.7,0,5,2.2,5,5
				S682.7,524.1,679.9,524.1z"/>
			<path d="M640.1,474.3h-29.9c-2.8,0-5,2.2-5,5c0,2.8,2.2,5,5,5h29.9c2.8,0,5-2.2,5-5C645.1,476.6,642.9,474.3,640.1,474.3z"/>
			<path d="M640.1,454.4h-10c-2.8,0-5,2.2-5,5c0,2.8,2.2,5,5,5h10c2.8,0,5-2.2,5-5C645.1,456.7,642.9,454.4,640.1,454.4z"/>
			<path d="M640.1,434.5h-10c-2.8,0-5,2.2-5,5c0,2.8,2.2,5,5,5h10c2.8,0,5-2.2,5-5C645.1,436.8,642.9,434.5,640.1,434.5z"/>
			<path d="M610.3,424.6h29.9c2.8,0,5-2.2,5-5c0-2.8-2.2-5-5-5h-29.9c-2.8,0-5,2.2-5,5C605.3,422.4,607.5,424.6,610.3,424.6z"/>
			<path d="M610.3,364.9h29.9c2.8,0,5-2.2,5-5s-2.2-5-5-5h-29.9c-2.8,0-5,2.2-5,5S607.5,364.9,610.3,364.9z"/>
			<path d="M640.1,394.7h-10c-2.8,0-5,2.2-5,5c0,2.8,2.2,5,5,5h10c2.8,0,5-2.2,5-5C645.1,396.9,642.9,394.7,640.1,394.7z"/>
			<path d="M640.1,374.8h-10c-2.8,0-5,2.2-5,5c0,2.8,2.2,5,5,5h10c2.8,0,5-2.2,5-5C645.1,377,642.9,374.8,640.1,374.8z"/>
			<path d="M749.6,394.7h10c8.2,0,14.9,6.7,14.9,14.9c0,2.8,2.2,5,5,5c2.8,0,5-2.2,5-5c0-13.7-11.2-24.9-24.9-24.9h-10
				c-13.7,0-24.9,11.2-24.9,24.9v39.8c0,13.7,11.2,24.9,24.9,24.9h10c13.7,0,24.9-11.2,24.9-24.9c0-2.8-2.2-5-5-5c-2.8,0-5,2.2-5,5
				c0,8.2-6.7,14.9-14.9,14.9h-10c-8.2,0-14.9-6.7-14.9-14.9v-39.8C734.7,401.4,741.4,394.7,749.6,394.7z"/>
			<path d="M809.3,384.8c-8.2,0-14.9,6.7-14.9,14.9c0,8.2,6.7,14.9,14.9,14.9s14.9-6.7,14.9-14.9
				C824.2,391.5,817.5,384.8,809.3,384.8z M809.3,404.7c-2.7,0-5-2.2-5-5c0-2.7,2.2-5,5-5c2.7,0,5,2.2,5,5
				C814.3,402.4,812.1,404.7,809.3,404.7z"/>
		</g>
	</g>
</g>
</svg>
