<svg height="512pt" viewBox="-51 0 512 512.00538" width="512pt" xmlns="http://www.w3.org/2000/svg"><path d="m24.996094 406.996094c-1.023438 0-24.99218775-.476563-24.99218775-42.070313 0-3.199219 1.80078175-6.140625 4.64843775-7.601562.605468-.316407 60.152344-31.28125 61.167968-75.101563-3.175781-11.46875-23.195312-90.671875 20.554688-117.414062 1.347656-.828125 2.96875-1.410156 4.480469-1.257813.546875 0 3.507812.0625 8.269531.964844 5.425781 1.035156 10.230469 4.351563 13.183594 9.113281 3.027344 4.890625 3.875 10.871094 2.320312 16.410156l-2.78125 9.933594c5.035156-2.449218 10.734375-5.75 16.195313-10.078125 5.90625-4.675781 14.0625-4.445312 19.414062.546875 1.535157 1.433594 3.078125 2.953125 4.625 4.546875 2.882813 2.960938 4.4375 6.878907 4.359375 11.015625-.066406 4.082032-1.714844 7.867188-4.640625 10.667969l-35.984375 34.507813v9.121093l1.671875-1.800781c.425781-.460938.902344-.867188 1.425781-1.226562 1.515626-1.074219 25.070313-18.082032 38.347657-27.664063 4.335937-3.125 9.796875-4.277344 14.984375-3.148437 5.179687 1.125 9.675781 4.425781 12.3125 9.058593 4.777344 8.40625 3.003906 18.621094-4.105469 24.464844-3.328125 2.730469-7.097656 5.523437-10.929687 8.339844-5.207032 3.832031-11.671876 8.601562-15.957032 12.882812 6.367188-.886719 16.871094-2.761719 32.996094-6.339843 4.804688-1.058594 9.773438.101562 13.601562 3.175781 3.917969 3.148437 6.171876 7.851562 6.171876 12.925781v9.542969c0 7.0625-4.453126 13.335937-11.085938 15.597656l-6.511719 2.226563 17.578125 17.902343c3.117188 3.183594 5.054688 7.175781 5.609375 11.554688l.398438 3.199219c.949219 7.722656-2.492188 15.15625-8.957031 19.394531-6.289063 4.125-14.199219 4.3125-20.660157.515625-13.890625-8.183594-33.289062-21.847656-47.941406-40.945313-3.128906-1.132812-10.535156-3.148437-17.96875-.253906-7.484375 2.910156-13.550781 10.164063-18.023437 21.554687-18.011719 45.882813-70.132813 55.226563-72.351563 55.601563-.46875.09375-.949219.136719-1.425781.136719zm-7.78125-37.109375c.851562 14.085937 5.289062 18.90625 7.679687 19.890625 7.542969-1.675782 44.960938-11.554688 57.992188-44.730469 6.339843-16.148437 15.757812-26.683594 28.011719-31.335937 16.914062-6.417969 32.53125 1.367187 33.179687 1.699218 1.183594.605469 2.210937 1.476563 2.992187 2.542969 13.09375 17.773437 31.308594 30.617187 44.289063 38.261719.886719.527344 1.773437.503906 2.644531-.078125.488282-.3125 1.597656-1.253907 1.375-3.0625l-.382812-3.089844c-.085938-.664063-.386719-1.269531-.863282-1.765625l-26.769531-27.273438c-2.019531-2.0625-2.867187-5.007812-2.234375-7.824218.007813-.023438.109375-.484375.117188-.519532.667968-2.867187 2.765625-5.179687 5.546875-6.136718l18.945312-6.476563-.417969-8.207031c-37.9375 8.363281-44.039062 7.339844-46.359374 6.945312-3.609376-.605468-6.8125-2.746093-8.765626-5.871093-1.929687-3.097657-2.441406-6.859375-1.40625-10.316407 3.191407-10.667968 15.101563-19.4375 26.621094-27.921874 3.566406-2.625 7.101563-5.222657 10.207032-7.773438.640624-.527344.742187-1.75.222656-2.660156-.359375-.632813-.726563-.90625-1.203125-1.015625-.332031-.078125-.847657-.078125-1.375.304687-26.308594 19.003906-34.816407 25.140625-37.777344 27.238282l-14.214844 15.320312c-.683593.730469-1.492187 1.347656-2.390625 1.796875-3.027344 1.546875-6.570312 1.410156-9.472656-.375-2.90625-1.78125-4.640625-4.886719-4.640625-8.300781v-31.085938c0-1.144531.230469-2.28125.683594-3.335937.453125-1.066407 1.484375-2.894531 2.320312-3.695313l36.890625-35.378906c-.453125-.453125-.898437-.886719-1.351562-1.324219-10 7.628907-20.375 12.398438-27.457032 15.085938-4.507812 1.726562-9.507812.753906-13.074218-2.507813-3.625-3.320312-5.050782-8.320312-3.730469-13.054687l5.164063-18.414063c.265624-.949218.121093-1.972656-.390626-2.816406-.316406-.511719-.898437-1.160156-1.871093-1.339844-1.109375-.207031-2.0625-.359375-2.839844-.453125-26.410156 19.394531-16.710937 76.816407-10.546875 97.851563.230469.773437.347656 1.59375.347656 2.40625-.007812 47.058594-49.703125 79.554687-65.695312 88.796875zm172.0625-78.898438"/><path d="m281.605469 349.839844c-.375 0-.757813-.023438-1.140625-.074219-4.679688-.625-7.953125-4.925781-7.332032-9.59375 23.457032-175.226563-108.414062-227.671875-114.039062-229.816406-4.394531-1.679688-6.613281-6.605469-4.9375-11.007813 1.671875-4.402344 6.578125-6.613281 10.988281-4.957031 1.503907.570313 150.203125 59.058594 124.910157 248.042969-.570313 4.292968-4.234376 7.40625-8.449219 7.40625zm0 0"/><path d="m249.394531 512.003906c-3.902343 0-7.894531-.40625-11.964843-1.3125-23.003907-5.128906-41.753907-24.867187-55.738282-58.664062-12.714844-30.730469-26.152344-71.59375-36.878906-112.128906-.984375-3.71875.636719-7.644532 3.976562-9.574219 3.328126-1.917969 7.542969-1.382813 10.273438 1.324219 11.398438 11.289062 23.867188 19.582031 32.324219 24.558593 1.183593.699219 2.175781.367188 2.789062-.042969.546875-.359374 1.433594-1.203124 1.246094-2.816406l-.425781-3.386718c-.085938-.667969-.386719-1.273438-.863282-1.757813l-26.769531-27.273437c-2.019531-2.066407-2.867187-5.007813-2.234375-7.824219.640625-2.902344 2.851563-5.691407 5.664063-6.65625l18.945312-6.476563-.417969-8.207031c-37.929687 8.351563-44.046874 7.328125-46.351562 6.945313-3.609375-.605469-6.808594-2.75-8.765625-5.871094-1.925781-3.097656-2.4375-6.863282-1.40625-10.316406 3.191406-10.667969 15.101563-19.441407 26.621094-27.921876 3.570312-2.628906 7.101562-5.222656 10.207031-7.773437.640625-.527344.734375-1.75.214844-2.664063-.417969-.730468-.878906-.9375-1.203125-1.015624-.332031-.074219-.847657-.074219-1.367188.300781-26.296875 18.996093-34.804687 25.136719-37.777343 27.238281l-14.214844 15.324219c-.683594.734375-1.492188 1.347656-2.378906 1.800781-3.03125 1.542969-6.570313 1.410156-9.472657-.375-2.910156-1.785156-4.644531-4.890625-4.644531-8.304688v-31.066406c0-1.144531.230469-2.28125.683594-3.335937.453125-1.066407 1.484375-2.894531 2.320312-3.695313l36.890625-35.378906c-.445312-.453125-.894531-.886719-1.347656-1.324219-9.984375 7.621094-20.359375 12.390625-27.433594 15.085938-4.523437 1.714843-9.542969.761719-13.109375-2.507813-3.617187-3.308594-5.042968-8.320312-3.710937-13.054687l5.164062-18.414063c.261719-.957031.117188-1.980468-.402343-2.816406-.316407-.511719-.894532-1.160156-1.867188-1.339844-1.109375-.207031-2.066406-.359375-2.84375-.453125-8.78125 6.425781-14.316406 17.441407-16.496094 32.792969-.527344 3.722656-3.421875 6.65625-7.132812 7.238281-3.703125.585938-7.363282-1.332031-8.992188-4.710937-17.535156-36.242188-43.007812-104.550782-16.667968-154.9375 3.203124-6.128906 7.945312-11.921875 14.097656-17.222656 83.523437-71.875 182.167968-55.269532 277.757812 46.796874 51.460938 54.9375 76.257813 115.761719 73.707032 180.792969-4.792969 122.308594-102.925782 213.210938-107.097657 217.023438-8.339843 7.613281-28.585937 23.398437-52.90625 23.398437zm-80.765625-150.21875c8.992188 30.753906 19.136719 60.28125 28.832032 83.710938 11.734374 28.355468 26.425781 44.691406 43.679687 48.539062 21.683594 4.820313 41.949219-11.007812 49.65625-18.039062.972656-.886719 97.03125-89.839844 101.554687-205.085938 2.363282-60.296875-20.890624-116.972656-69.113281-168.457031-89.664062-95.722656-177.546875-111.457031-254.167969-45.523437-4.574218 3.941406-7.882812 7.929687-10.113281 12.195312-18.644531 35.667969-6.390625 83.761719 7.511719 118.390625 4.640625-9.839844 11.296875-17.445313 19.914062-22.707031 1.351563-.828125 2.960938-1.410156 4.480469-1.257813.546875 0 3.507813.0625 8.261719.957031 5.433594 1.03125 10.238281 4.351563 13.191406 9.113282 3.03125 4.890625 3.882813 10.878906 2.320313 16.417968l-2.78125 9.933594c5.035156-2.449218 10.734375-5.742187 16.195312-10.070312 5.914063-4.675782 14.070313-4.445313 19.414063.546875 1.5 1.398437 3.019531 2.882812 4.539062 4.445312 2.875 2.960938 4.480469 7.007813 4.414063 11.109375-.078125 4.097656-1.734375 7.910156-4.679688 10.734375l-35.914062 34.441407v9.121093l1.664062-1.789062c.425781-.460938.902344-.878907 1.425781-1.230469 1.527344-1.082031 25.070313-18.082031 38.339844-27.664062 4.324219-3.125 9.792969-4.265626 14.984375-3.148438 5.1875 1.125 9.675781 4.425781 12.3125 9.0625 4.777344 8.402344 3.011719 18.609375-4.105469 24.464844-3.328124 2.738281-7.097656 5.519531-10.929687 8.34375-5.207031 3.832031-11.675781 8.601562-15.957031 12.894531 6.363281-.886719 16.867187-2.765625 32.996094-6.339844 4.804687-1.058593 9.761718.101563 13.609374 3.171875 3.917969 3.148438 6.164063 7.851563 6.164063 12.929688v9.539062c0 7.066406-4.457031 13.339844-11.09375 15.597656l-6.511719 2.230469 17.578125 17.902344c3.113281 3.179687 5.050781 7.175781 5.605469 11.550781l.4375 3.492188c.929688 7.628906-2.457031 14.96875-8.832031 19.140625-6.316407 4.136719-14.277344 4.316406-20.804688.476562-3.992187-2.363281-8.839843-5.417969-14.078125-9.140625zm0 0"/><path d="m249.316406 477.855469c-16.535156 0-28.738281-21.144531-36.078125-38.886719-4.796875-11.585938-9.726562-24.753906-14.660156-39.113281-1.527344-4.457031.84375-9.3125 5.300781-10.847657 4.445313-1.535156 9.308594.851563 10.835938 5.300782 4.8125 14.035156 9.617187 26.859375 14.285156 38.132812 7.609375 18.40625 16.136719 28.339844 20.300781 28.339844 3.738281 0 11.28125-3.441406 18.472657-10 3.636718-3.277344 86.742187-79.292969 90.613281-178.082031.1875-4.707031 4.191406-8.4375 8.867187-8.191407 4.710938.179688 8.378906 4.148438 8.191406 8.859376-4.085937 104.113281-86.730468 181.507812-96.144531 190-9.929687 9.078124-21.144531 14.488281-29.984375 14.488281zm0 0"/></svg>