<?xml version="1.0" encoding="utf-8"?>
<!-- Generator: Adobe Illustrator 22.1.0, SVG Export Plug-In . SVG Version: 6.00 Build 0)  -->
<svg version="1.1" id="Слой_1" xmlns="http://www.w3.org/2000/svg" xmlns:xlink="http://www.w3.org/1999/xlink" x="0px" y="0px"
	 viewBox="0 0 511 511" style="enable-background:new 0 0 511 511;" xml:space="preserve">
<path d="M222.2,225.9l-0.5,0c-18,0-35.6,7.9-49.7,22.3c-13.7,14-22.7,33.1-22.5,47.6c-0.1,7,1.9,12.7,6,16.9
	c7.9,8,21.7,8.7,36.4,8.7c3.6,0,7.5-0.1,11.6-0.1c4.6-0.1,9.5-0.1,14.5-0.1v11.8c0,6.9,5.6,12.5,12.5,12.5h22.7v22.9
	c0,6.9,5.6,12.5,12.5,12.5h27.7c6.9,0,12.5-5.6,12.5-12.5v-22.9h22.7c6.9,0,12.5-5.6,12.5-12.5v-28c0-6.9-5.6-12.5-12.5-12.5h-22.7
	v-22.9c0-6.9-5.6-12.5-12.5-12.5h-13.3c-2.3-3.1-4.9-6.1-7.6-8.9c-14-14.4-31.7-22.3-49.7-22.3L222.2,225.9z M218,304.9v1.2
	c-5.2,0-10,0.1-14.7,0.1c-4,0.1-7.8,0.1-11.3,0.1c-10.6,0-22-0.5-25.7-4.2c-0.8-0.8-1.8-2.3-1.7-6.3c0-0.1,0-0.2,0-0.3
	c-0.2-8.9,6-24.5,18.2-37c7.9-8.1,21.1-17.8,39-17.8l0.5,0h0.1l0.5,0c17.4,0,30.3,9.1,38.3,17.1c-4.6,1.8-8,6.3-8,11.6v22.9h-22.7
	C223.6,292.5,218,298.1,218,304.9z M303.3,307.4H326v23h-22.7c-6.9,0-12.5,5.6-12.5,12.5v22.9h-22.7v-22.9c0-6.9-5.6-12.5-12.5-12.5
	h-22.7v-23h22.7c6.9,0,12.5-5.6,12.5-12.5v-22.9h22.7V295C290.8,301.8,296.4,307.4,303.3,307.4z"/>
<path d="M277.6,235.1c4.2,4,9.9,6.2,16,6.2c7.4,0,14.7-3.3,20.1-8.9c10.1-10.7,10.4-26.9,0.6-36.1c-4.2-4-9.9-6.2-16-6.2
	c-7.4,0-14.7,3.3-20.1,8.9C268.1,209.6,267.8,225.8,277.6,235.1z M289.1,209.2c2.5-2.7,5.9-4.2,9.2-4.2c1.6,0,3.8,0.4,5.7,2.1
	c3.8,3.6,3.2,10.3-1.2,15c-2.5,2.7-5.9,4.2-9.2,4.2c-1.6,0-3.8-0.4-5.7-2.1C284.1,220.6,284.6,213.9,289.1,209.2z"/>
<path d="M253.7,164c-1.7-0.4-3.5-0.6-5.3-0.6c-11.5,0-21.7,8.6-24.7,20.8c-3.5,14.3,4.3,28.5,17.4,31.7c1.7,0.4,3.5,0.6,5.3,0.6
	c11.5,0,21.7-8.6,24.7-20.8C274.6,181.4,266.8,167.1,253.7,164z M256.5,192.1c-1.3,5.4-5.6,9.4-10.1,9.4c-0.6,0-1.2-0.1-1.8-0.2
	c-5-1.2-7.9-7.3-6.3-13.6c1.3-5.4,5.6-9.4,10.1-9.4c0.6,0,1.2,0.1,1.8,0.2C255.2,179.7,258.1,185.8,256.5,192.1z"/>
<path d="M191.4,165c-2.1,0-4.2,0.3-6.2,0.9c-12.9,3.7-20.1,18.2-16.1,32.4c3.3,11.7,13.4,19.8,24.6,19.8c2.1,0,4.2-0.3,6.2-0.9
	c12.9-3.7,20.1-18.2,16.1-32.4C212.7,173.1,202.6,165,191.4,165z M195.8,202.8c-0.7,0.2-1.4,0.3-2.1,0.3c-4.4,0-8.7-3.8-10.2-9
	c-1.8-6.2,0.8-12.4,5.8-13.9c0.7-0.2,1.4-0.3,2.1-0.3c4.4,0,8.7,3.8,10.2,9C203.4,195.2,200.8,201.4,195.8,202.8z"/>
<path d="M143.4,194.5c-6.5,0-12.4,2.4-16.7,6.9c-9.4,9.6-8.5,25.8,2,36.1c5.3,5.2,12.4,8.1,19.4,8.1c6.5,0,12.4-2.4,16.7-6.9
	c9.4-9.6,8.5-25.8-2-36.1C157.5,197.5,150.4,194.5,143.4,194.5z M154.1,228.3c-1.9,1.9-4.3,2.4-6,2.4c-3.2,0-6.4-1.4-8.9-3.9
	c-4.6-4.5-5.4-11.2-1.8-14.9c1.9-1.9,4.3-2.4,6-2.4c3.2,0,6.4,1.4,8.9,3.9C156.9,217.9,157.7,224.6,154.1,228.3z"/>
<path d="M433.5,410C433.4,410,433.4,410,433.5,410l0-269c0-6.9-5.6-12.5-12.5-12.5H40.2c-6.9,0-12.5,5.6-12.5,12.5v256.4
	c0,6.9,5.6,12.5,12.5,12.5h51.3c4.1,0,7.7-3.2,7.8-7.3c0.1-4.2-3.3-7.7-7.5-7.7H42.7c0,0,0,0,0,0V143.5c0,0,0,0,0,0h375.7
	c0,0,0,0,0,0V410c0,0,0,0,0,0"/>
<path d="M461.4,430.1c-0.1,0-0.2,0-0.3,0c0,0,0,0,0,0V205.7c0-4.1-3.2-7.7-7.3-7.8c-4.2-0.1-7.7,3.3-7.7,7.5V430"/>
<path d="M430.9,395H129.1c-4.1,0-7.7,3.2-7.8,7.3c-0.1,4.2,3.3,7.7,7.5,7.7h288c0,0,16.7,0,16.7,0"/>
<path d="M381.6,394.2"/>
<path d="M279.5,517"/>
<path d="M453.6,437.6H344.5c-4.1,0-7.5-3.4-7.5-7.5l0,0c0-4.1,3.4-7.5,7.5-7.5h109.1c4.1,0,7.5,3.4,7.5,7.5l0,0
	C461.1,434.2,457.7,437.6,453.6,437.6z"/>
<path d="M400.6,459.9c6.6,0,15.6,2.1,14.8-11.7v-14c0-6.6-7-11.3-13.6-11.3"/>
<path d="M402.4,423.1c0,0-43.6-0.5-43.6-0.5h-324c-10.9,0-19.8-8.9-19.8-19.8V129.1c0-7.3,6-13.2,13.3-13.2h404.6
	c7.3,0,13.3,5.9,13.3,13.2V162c0,4.1,3.2,7.7,7.3,7.8c4.2,0.1,7.7-3.3,7.7-7.5v-33.3c0-15.6-12.7-28.2-28.3-28.2h-11.4c0,0,0,0,0,0
	v-8c0-6.9-5.6-12.5-12.5-12.5h-61.2c-6.9,0-12.5,5.6-12.5,12.5v8c0,0,0,0,0,0h-14.8c0,0,0,0,0,0V66.7c0-18.6-15.1-33.7-33.7-33.7
	H174.6c-18.6,0-33.7,15.1-33.7,33.7v34.2c0,0,0,0,0,0H126c0,0,0,0,0,0v-8c0-6.9-5.6-12.5-12.5-12.5H52.2c-6.9,0-12.5,5.6-12.5,12.5
	v8c0,0,0,0,0,0H28.3C12.7,100.9,0,113.6,0,129.1v273.7c0,19.2,15.6,34.8,34.7,34.8h7.1c0,0,0,0,0,0v9.7c0,6.9,5.6,12.5,12.5,12.5
	h75.8c6.9,0,12.5-5.6,12.5-12.5v-9.7c0,0,0,0,0,0h175.6c0,0,0,0,0,0v9.7c0,6.9,5.6,12.5,12.5,12.5h35.7c0,0,0,0,0,0v0h10.8
	c1.4,0,2.8-0.1,4.2-0.1l25.1,0.1 M333.4,437.6h72.9v7.3h-72.9V437.6z M56.8,437.6h70.9v7.3H56.8V437.6z M111,100.9H54.7v-5.6H111
	V100.9z M275,100.9h-88.9V78.2H275V100.9z M305.2,100.9H290V70.7c0-4.1-3.3-7.5-7.5-7.5H178.6c-4.1,0-7.5,3.4-7.5,7.5v30.2h-15.3
	V66.6c0-10.3,8.4-18.7,18.7-18.7h111.9c10.3,0,18.7,8.4,18.7,18.7V100.9z M406.4,100.9h-56.3v-5.6h56.3V100.9z"/>
</svg>
