<?xml version="1.0" encoding="iso-8859-1"?>
<!-- Generator: Adobe Illustrator 19.0.0, SVG Export Plug-In . SVG Version: 6.00 Build 0)  -->
<svg version="1.1" id="Capa_1" xmlns="http://www.w3.org/2000/svg" xmlns:xlink="http://www.w3.org/1999/xlink" x="0px" y="0px"
	 viewBox="0 0 505.993 505.993" style="enable-background:new 0 0 505.993 505.993;" xml:space="preserve">
<g>
	<g>
		<g>
			<path d="M289.877,300.001c1.587,1.703,3.811,2.669,6.139,2.668c2.562-0.003,4.983-1.175,6.574-3.183s2.178-4.633,1.594-7.128
				c-2.344-10-19.357-30.984-40.943-46.287c-16.441-11.735-31.524-25.263-44.971-40.336c-12.299-13.697-37.074-36.672-64.824-36.672
				c-6.834-0.556-13.567,1.917-18.415,6.765s-7.322,11.581-6.765,18.415c0,31.402,35.852,47.102,86.586,65.885
				C243.263,270.652,272.64,281.533,289.877,300.001z M220.599,244.353L220.599,244.353c-42.803-15.844-75.545-29.598-75.545-50.111
				c0-6.352,2.041-8.393,8.393-8.393c21.234,0,41.902,19.484,52.332,31.098c12.105,13.536,25.441,25.919,39.836,36.988
				C237.222,250.513,228.763,247.378,220.599,244.353z"/>
			<path d="M233.627,329.423c-29.373,14.693-75.963-8.168-76.434-8.398c-4.148-2.06-9.182-0.376-11.254,3.766
				c-2.068,4.145-0.388,9.181,3.754,11.254c18.89,9.091,39.446,14.207,60.393,15.033c10.725,0.227,21.355-2.046,31.049-6.639
				c4.135-2.08,5.806-7.114,3.736-11.253C242.802,329.046,237.772,327.363,233.627,329.423z"/>
			<path d="M493.902,164.461c-16.352-48.9-46.239-78.16-70.07-101.493c-12.708-10.817-23.496-23.704-31.91-38.116
				c-0.8-1.737-1.476-3.53-2.02-5.363c-3.035-10.829-12.913-18.31-24.16-18.295H27.172c-1.672-0.001-3.339,0.161-4.979,0.485
				C10.747,3.928,2.374,13.791,2.013,25.451L1.9,28.547l-0.338,9.228c-0.097,2.565-0.2,5.416-0.302,8.197
				c-0.038,1.028-0.074,1.982-0.112,3.035c-0.049,1.367-0.094,2.792-0.143,4.206c-0.113,3.275-0.222,6.622-0.326,10.112
				c-0.027,0.919-0.051,1.845-0.077,2.78C0.478,70.443,0.37,74.924,0.277,79.55l-0.015,0.799
				c-1.384,70.249,1.658,171.606,35.677,253.642v145.629c0.015,13.9,11.28,25.165,25.18,25.18h311.439
				c12.962-0.095,23.766-9.95,25.049-22.848c3.18-28.885,16.293-55.768,37.098-76.055c31.014-26.852,53.19-62.45,63.618-102.126
				c0.445-1.653,0.88-3.309,1.286-4.978c0.574-2.39,1.136-4.784,1.632-7.21c0.796-3.843,1.503-7.722,2.097-11.646
				c0.215-1.437,0.387-2.891,0.576-4.339c0.505-3.83,0.913-7.697,1.225-11.6c0.115-1.442,0.223-2.884,0.312-4.337
				c0.308-4.971,0.52-9.977,0.52-15.056C506.326,217.411,502.25,190.342,493.902,164.461z M380.918,480.128
				c-0.318,4.4-3.95,7.825-8.36,7.885H61.119c-4.633-0.006-8.387-3.76-8.393-8.393V368.112
				c30.713,57.066,87.742,95.173,152.217,101.712c11.274,1.369,22.079-4.942,26.426-15.434
				c5.807-12.056,12.526-23.651,20.098-34.684c15.238-23.802,32.179-50.429,35.559-74.495c0.46-2.736,0.699-5.505,0.716-8.28
				c-0.008-1.535-0.124-3.068-0.349-4.587c-3.524-28.702-39.935-42.243-78.45-56.503c-47.914-17.738-97.463-36.082-97.463-81.598
				c-0.501-11.277,3.759-22.245,11.741-30.226c7.982-7.982,18.95-12.242,30.226-11.741c32.553,0,60.012,22.967,77.312,42.234
				c12.617,14.15,26.768,26.852,42.193,37.873c16.879,11.863,31.305,26.877,42.484,44.217c0.112,0.268,0.238,0.531,0.377,0.787
				c3.248,5.319,5.139,11.356,5.504,17.578c0.677,30.362-8.302,60.155-25.643,85.086l-0.168,0.266
				c-2.512,3.955-4.709,7.426-6.459,10.795c-0.159,0.307-0.316,0.611-0.467,0.918l-0.127,0.254
				c-2.393,4.709-6.336,11.115-10.504,17.885c-6.78,10.509-12.91,21.422-18.356,32.68c-2.138,4.371-1.871,9.536,0.705,13.664
				c2.755,4.097,7.426,6.485,12.36,6.32h6.377c8.48,0.021,16.955,0,25.434,0.061c2.555,0.163,5.017-0.986,6.533-3.049
				c1.608-1.948,2.254-4.515,1.758-6.992l-0.012-0.062c-0.146-0.73-0.388-1.437-0.721-2.102c-4.686-8.47-8.422-17.431-11.139-26.721
				c-2.118-8.238-1.136-16.967,2.758-24.529c1.467-2.934,3.66-6.389,6.201-10.389c19.152-27.575,29.048-60.522,28.258-94.086v-0.139
				c-0.257-7.786-2.271-15.414-5.893-22.311c1.446-3.922,3.141-7.748,5.074-11.455c5.805-10.135,8.973-21.565,9.213-33.242
				c-0.983-13.667-5.758-26.79-13.787-37.893c-6.362-8.548-10.298-18.655-11.393-29.254c0-37.18,10.984-50.361,41.967-50.361
				c23.967,0,25.18,48.943,25.18,58.754c0.653,5.456,2.938,10.587,6.557,14.721c12.779,17.648,19.33,39.042,18.623,60.82
				c0,42.43-33.889,81.102-48.459,95.758c-6.624,6.64-10.329,15.646-10.295,25.025v0.922c-0.051,5.195-2.2,10.148-5.959,13.734
				c-11.596,10.499-18.516,25.197-19.221,40.824c0.008,2.104,0.188,4.204,0.537,6.278c1.312,7.983,6.214,14.923,13.299,18.828
				c7.169,4.034,15.795,4.549,23.393,1.398c9.294-3.86,18.359-8.248,27.151-13.144C387.148,448.676,382.695,464.195,380.918,480.128
				z M207.76,387.214c16.477,0.255,32.876-2.323,48.481-7.621c-5.771,10.45-12.487,21.023-18.912,31.059
				c-8.129,11.848-15.306,24.321-21.463,37.303c-1.434,3.556-5.087,5.695-8.889,5.205c-6.842-0.835-13.4-2.013-19.767-3.416
				C188.104,428.212,195.106,401.794,207.76,387.214z M203.808,370.505c-60.242,0-92.328-29.246-92.328-50.361
				c0-8.299,8.975-16.787,75.541-16.787c49.79,0,73.76,11.23,81.241,24.071c0.195,0.341,0.373,0.684,0.547,1.03
				c0.324,0.625,0.616,1.266,0.874,1.922c0.216,0.567,0.382,1.147,0.542,1.727c0.136,0.489,0.294,0.978,0.387,1.467
				c0.219,1.106,0.333,2.23,0.343,3.357c-0.039,2.449-0.275,4.89-0.707,7.301C267.817,354.945,256.536,370.505,203.808,370.505z
				 M291.119,446.054c-3.16-0.008-6.32-0.011-9.479-0.008h-5c2.459-4.988,5.48-10.32,8.623-15.603
				C286.82,435.786,288.778,441.005,291.119,446.054z M488.701,258.57c-0.079,1.272-0.172,2.537-0.273,3.801
				c-0.307,3.886-0.715,7.732-1.223,11.538c-0.104,0.772-0.17,1.561-0.283,2.33c-0.6,4.131-1.369,8.189-2.205,12.216
				c-0.369,1.763-0.772,3.511-1.187,5.254c-0.559,2.372-1.182,4.714-1.824,7.047c-1.19,4.291-2.516,8.52-3.978,12.688
				c-0.299,0.853-0.569,1.722-0.879,2.569c-1.058,2.862-2.196,5.686-3.387,8.484c-0.199,0.47-0.404,0.938-0.606,1.406
				c-10.761,24.59-26.612,46.619-46.508,64.635c-0.781,0.714-1.471,1.506-2.234,2.235c-18.872,16.471-40.359,29.679-63.577,39.08
				c-2.868,1.181-6.119,0.98-8.82-0.545c-2.606-1.421-4.415-3.961-4.906-6.889c-0.202-1.174-0.308-2.362-0.316-3.553
				c0.763-11.115,5.869-21.483,14.213-28.865c6.975-6.732,10.931-15.999,10.967-25.692v-0.922c-0.022-4.941,1.924-9.687,5.41-13.188
				c16.041-16.135,53.344-58.914,53.344-107.594c0.71-25.123-6.839-49.785-21.492-70.205c-1.545-2.291-3.467-5.139-3.688-5.336
				c0-48.008-15.295-75.541-41.967-75.541c-52.078,0-58.754,35.885-58.754,67.148c0.983,13.667,5.758,26.79,13.787,37.893
				c6.362,8.548,10.298,18.655,11.393,29.254c-0.26,9.098-2.834,17.98-7.479,25.807c-0.291,0.59-0.583,1.183-0.877,1.779
				c-11.115-13.992-24.141-26.352-38.697-36.717c-14.406-10.3-27.622-22.169-39.406-35.389
				c-19.586-21.811-51.061-47.807-89.803-47.807c-3.622,0.002-7.238,0.313-10.807,0.93l-6.303-15.102
				c-1.126-2.718-1.701-5.632-1.693-8.574c-0.188-5.96,2.299-11.692,6.779-15.627c7.186-6.03,11.725-14.635,12.643-23.971
				c2.896-11.607,12.679-20.207,24.562-21.59c4.493-0.297,8.944,1.029,12.543,3.736c-16.67,5.554-28.283,20.692-29.33,38.232
				c0,12.512,11.533,25.18,33.574,25.18c22.697-1.123,40.844-19.271,41.967-41.967c-0.675-13.617-11.563-24.506-25.18-25.18
				c-0.997,0-1.947,0.084-2.92,0.128c-5.708-11.463-17.913-18.197-30.654-16.915c-20.403,1.486-37.291,16.436-41.242,36.508
				c-0.418,4.936-2.744,9.514-6.483,12.762c-8.431,7.129-13.219,17.665-13.045,28.705c-0.006,5.172,1.014,10.294,3,15.07
				l5.717,13.697c-20.257,9.576-32.815,30.347-31.881,52.734c0,52.051,49.767,75.148,95.127,92.364
				c-0.943-0.008-1.839-0.036-2.799-0.036c-58.475,0-92.328,5.492-92.328,33.574c0,25.796,29.053,61.272,92.994,66.445
				c-9.977,18.072-15.813,38.136-17.087,58.74c-59.986-19.005-96.974-64.519-119.59-119.595c-1.276-3.107-2.455-6.279-3.641-9.448
				c-0.95-2.535-1.958-5.033-2.852-7.601c-1.915-5.513-3.705-11.098-5.37-16.756c-0.62-2.092-1.161-4.221-1.748-6.329
				c-1.145-4.126-2.273-8.261-3.299-12.44c-0.484-1.961-0.931-3.934-1.389-5.904c-1.074-4.634-2.099-9.284-3.039-13.959
				c-0.29-1.438-0.581-2.876-0.859-4.317c-1.145-5.955-2.215-11.928-3.162-17.912l-0.076-0.454
				c-7.134-49.634-9.987-99.789-8.527-149.911l0.034-1.695c0.085-4.254,0.187-8.357,0.298-12.345
				c0.034-1.187,0.066-2.395,0.101-3.559c0.094-3.172,0.195-6.207,0.297-9.183c0.054-1.575,0.107-3.229,0.161-4.751
				c0.029-0.81,0.057-1.537,0.086-2.33c0.105-2.868,0.211-5.713,0.311-8.368l0.341-9.335l0.113-3.092
				c0.145-4.516,3.863-8.094,8.381-8.066h338.565c3.781,0.044,7.072,2.596,8.058,6.246c5.479,18.615,20.684,33.5,38.291,50.734
				c34.348,33.631,77.098,75.484,77.098,169.643C489.185,249.319,488.986,253.961,488.701,258.57z M212.201,68.341
				c4.364,0.598,7.796,4.029,8.393,8.393c-1.159,13.397-11.783,24.021-25.18,25.18c-10.902,0-16.787-4.324-16.787-8.393
				C178.627,81.41,191.463,68.341,212.201,68.341z"/>
		</g>
	</g>
</g>
<g>
</g>
<g>
</g>
<g>
</g>
<g>
</g>
<g>
</g>
<g>
</g>
<g>
</g>
<g>
</g>
<g>
</g>
<g>
</g>
<g>
</g>
<g>
</g>
<g>
</g>
<g>
</g>
<g>
</g>
</svg>
