<svg height="480pt" viewBox="0 0 480.03776 480" width="480pt" xmlns="http://www.w3.org/2000/svg"><path d="m480.039062 8.03125c.003907-3.109375-1.792968-5.9375-4.605468-7.257812-2.816406-1.316407-6.136719-.886719-8.523438 1.105468-2.074218 1.734375-50.871094 43.632813-50.871094 150.152344.40625 5.90625 2.71875 11.519531 6.589844 16l-1.152344.390625c-3.261718 1.101563-5.449218 4.167969-5.4375 7.609375v272c0 17.671875 14.324219 32 32 32 17.671876 0 32-14.328125 32-32v-288c0-1.898438-.675781-3.738281-1.90625-5.183594 1.199219-3.484375 1.839844-7.132812 1.90625-10.816406zm-16 21.960938v114.039062c-.019531 2.613281-.5625 5.195312-1.601562 7.589844l-1.601562 3.699218-13.140626 4.375-9.035156 3c-6.277344-7.648437-6.621094-10.664062-6.621094-10.664062 0-63.609375 18.671876-102.402344 32-122.039062zm-16 434.039062c-8.835937 0-16-7.164062-16-16v-266.257812l6.109376-2.0625c.191406-.046876.386718-.105469.570312-.167969l25.320312-8.417969v276.90625c0 8.835938-7.164062 16-16 16zm0 0"/><path d="m186.125 77.359375c14.300781 18.464844 39.824219 23.941406 60.441406 12.972656 20.617188-10.96875 30.339844-35.191406 23.019532-57.371093-7.316407-22.179688-29.546876-35.859376-52.644532-32.402344-23.097656 3.457031-40.34375 23.050781-40.847656 46.398437l-13.511719 65.074219h-10.542969c-4.417968 0-8 3.582031-8 8s3.582032 8 8 8h7.199219l-27.199219 131.199219-22.296874-131.199219h10.296874c4.417969 0 8-3.582031 8-8s-3.582031-8-8-8h-13.015624l-11.035157-64.984375c-.480469-23.242187-17.546875-42.800781-40.511719-46.421875-22.964843-3.621094-45.222656 9.734375-52.832031 31.703125s1.617188 46.230469 21.902344 57.589844c20.28125 11.359375 45.792969 6.550781 60.546875-11.414063l38 223.78125-34.886719 168.144532c-.898437 4.328124 1.882813 8.558593 6.207031 9.457031.535157.101562 1.078126.148437 1.625.144531 3.792969-.007812 7.0625-2.679688 7.824219-6.402344l26.574219-128 21.695312 127.769532c.667969 3.839843 4.007813 6.644531 7.90625 6.632812.449219-.003906.898438-.039062 1.34375-.113281 4.355469-.738281 7.289063-4.867188 6.550782-9.222657l-28.550782-168.121093zm37.914062-61.328125c17.671876 0 32 14.328125 32 32s-14.328124 32-32 32c-17.675781 0-32-14.328125-32-32s14.324219-32 32-32zm-176 64c-17.675781 0-32-14.328125-32-32s14.324219-32 32-32c17.671876 0 32 14.328125 32 32s-14.328124 32-32 32zm0 0"/><path d="m352.039062 263.972656v-55.941406c0-.144531-.074218-.265625-.082031-.410156-.007812-.140625.058594-.253906 0-.390625l-16-160c-.410156-4.089844-3.851562-7.199219-7.960937-7.199219-4.105469 0-7.546875 3.109375-7.957032 7.199219l-16 160c0 .136719.046876.265625 0 .390625-.050781.128906 0 .265625 0 .410156v55.421875c0 .183594-.105468.335937-.113281.519531-1.289062 19.003906-9.070312 36.988282-22.039062 50.9375-23.824219 28.617188-31.425781 65.71875-21.992188 107.3125 4.332031 18.992188 11.53125 37.214844 21.351563 54.039063 2.335937 3.757812 7.273437 4.90625 11.027344 2.574219 3.753906-2.335938 4.90625-7.273438 2.574218-11.03125-.515625-.796876-50.464844-82.832032-.640625-142.652344 11.375-12.945313 19.5-28.414063 23.710938-45.121094h20.128906c4.222656 16.707031 12.359375 32.175781 23.734375 45.121094 49.832031 59.832031 0 141.832031-.542969 142.652344-2.335937 3.757812-1.183593 8.695312 2.570313 11.03125 3.757812 2.332031 8.695312 1.183593 11.027344-2.574219 9.808593-16.828125 16.988281-35.054688 21.296874-54.046875 9.410157-41.601563 1.777344-78.6875-22.046874-107.304688-12.964844-13.953125-20.746094-31.933594-22.046876-50.9375zm-24-135.542968 7.199219 71.601562h-14.320312zm-8 87.601562h16v48h-16zm0 0"/><path d="m213.695312 130.375c-3.140624-3.03125-8.128906-2.988281-11.214843.097656-3.085938 3.085938-3.128907 8.074219-.097657 11.214844l18.34375 18.34375-18.34375 18.34375c-1.5 1.5-2.34375 3.535156-2.34375 5.65625v40h-8c-4.417968 0-8 3.582031-8 8v176c0 4.417969 3.582032 8 8 8h8v40c0 2.121094.84375 4.15625 2.34375 5.65625l16 16c3.136719 3.03125 8.128907 2.988281 11.214844-.097656 3.085938-3.085938 3.128906-8.078125.097656-11.214844l-13.65625-13.65625v-36.6875h8c4.417969 0 8-3.582031 8-8v-176c0-4.417969-3.582031-8-8-8h-8v-36.6875l21.65625-21.65625c3.121094-3.125 3.121094-8.1875 0-11.3125zm2.34375 269.65625h-16v-160h16zm0 0"/></svg>