<svg xmlns="http://www.w3.org/2000/svg" viewBox="0 0 512 512"><path d="M502.154 359.385h-15.37a120.099 120.099 0 0 0 15.564-59.077c0-65.15-52.051-118.154-116.031-118.154-38.831 0-74.655 19.628-96.117 51.946-11.332-8.166-24.825-12.562-39.026-12.562H49.231V60.308c0-19.68 16.012-35.692 35.692-35.692h7.385c17.581 0 32.224 12.781 35.151 29.539h-9.305c-5.437 0-9.846 4.409-9.846 9.846v19.706c-12.272 9.232-19.692 23.839-19.692 39.371v19.692c0 5.437 4.409 9.846 9.846 9.846h78.769c5.437 0 9.846-4.409 9.846-9.846v-19.692c0-15.532-7.42-30.139-19.692-39.371V64c0-5.437-4.409-9.846-9.846-9.846h-10.196c-3.072-27.653-26.576-49.231-55.035-49.231h-7.385c-30.54 0-55.385 24.845-55.385 55.385v161.231H9.846c-5.437 0-9.846 4.409-9.846 9.846v196.923c0 5.437 4.409 9.846 9.846 9.846h154.257v19.692c0 27.146 21.738 49.231 48.459 49.231 26.72 0 48.458-22.085 48.458-49.231v-19.692h241.134c5.437 0 9.846-4.409 9.846-9.846v-59.077c0-5.437-4.409-9.846-9.846-9.846zM128 73.846h19.692v15.128a9.85 9.85 0 0 0 4.914 8.523c9.116 5.275 14.778 15.076 14.778 25.58v9.846h-59.077v-9.846c0-10.504 5.663-20.306 14.778-25.58a9.847 9.847 0 0 0 4.914-8.522V73.846zm36.103 344.616H19.692v-39.385h144.411v39.385zm87.07-118.154c-5.437 0-9.846 4.409-9.846 9.846v147.692c0 16.288-12.904 29.539-28.767 29.539-15.862 0-28.766-13.251-28.766-29.539V310.154c0-5.437-4.409-9.846-9.846-9.846s-9.846 4.409-9.846 9.846v49.231H19.692v-19.692h38.42c5.437 0 9.846-4.409 9.846-9.846s-4.409-9.846-9.846-9.846h-38.42v-78.769h231.481c10.808 0 21.04 3.632 29.427 10.322-5.362 12.017-8.671 24.777-9.842 38.043-.479 5.416 3.524 10.196 8.941 10.674.295.026.588.039.878.039 5.046 0 9.344-3.859 9.796-8.981 1.169-13.224 4.874-25.841 11.006-37.514 16.838-32.055 49.381-51.968 84.938-51.968 53.121 0 96.339 44.169 96.339 98.462 0 21.312-6.812 42.112-19.263 59.077H261.02v-49.231c0-5.438-4.41-9.847-9.847-9.847zm241.135 118.154H261.02v-39.385h231.288v39.385z"/><path d="M94.031 322.885C92.199 321.053 89.659 320 87.07 320s-5.13 1.053-6.961 2.885c-1.83 1.831-2.885 4.372-2.885 6.961s1.054 5.13 2.885 6.96c1.831 1.831 4.372 2.886 6.961 2.886s5.13-1.054 6.961-2.886c1.83-1.83 2.885-4.371 2.885-6.96s-1.054-5.13-2.885-6.961zm43.815-160.423c-5.437 0-9.846 4.409-9.846 9.846V192c0 5.437 4.409 9.846 9.846 9.846s9.846-4.409 9.846-9.846v-19.692c0-5.437-4.409-9.846-9.846-9.846zm46.347 12.729l-9.846-9.845c-3.846-3.844-10.078-3.844-13.925 0-3.845 3.845-3.845 10.08 0 13.925l9.846 9.846c1.924 1.921 4.443 2.883 6.963 2.883s5.039-.962 6.962-2.884c3.845-3.845 3.845-10.079 0-13.925zm-68.923-9.847a9.847 9.847 0 0 0-13.924.001l-9.846 9.846c-3.845 3.845-3.845 10.079 0 13.925a9.82 9.82 0 0 0 6.962 2.883c2.52 0 5.039-.962 6.962-2.884l9.846-9.846c3.845-3.844 3.845-10.079 0-13.925z"/></svg>