<svg height="640" viewBox="0 0 480.038 480" width="640" xmlns="http://www.w3.org/2000/svg"><path d="M480.04 8.031a8.007 8.007 0 0 0-4.606-7.258 8.006 8.006 0 0 0-8.524 1.106c-2.074 1.734-50.87 43.633-50.87 150.152a27.341 27.341 0 0 0 6.589 16l-1.152.39a8 8 0 0 0-5.438 7.61v272c0 17.672 14.324 32 32 32 17.672 0 32-14.328 32-32v-288a8 8 0 0 0-1.906-5.183 35.174 35.174 0 0 0 1.906-10.817zm-16 21.961v114.04a19.43 19.43 0 0 1-1.603 7.59l-1.601 3.698-13.14 4.375-9.036 3c-6.277-7.648-6.62-10.664-6.62-10.664 0-63.61 18.67-102.402 32-122.039zm-16 434.04c-8.837 0-16-7.165-16-16v-266.26l6.108-2.062c.192-.047.387-.106.57-.168l25.321-8.418V448.03c0 8.836-7.164 16-16 16zM186.125 77.36c14.3 18.464 39.824 23.94 60.441 12.972 20.618-10.969 30.34-35.191 23.02-57.371C262.27 10.78 240.039-2.9 216.94.559c-23.097 3.457-40.343 23.05-40.847 46.398l-13.512 65.074h-10.543a8 8 0 0 0 0 16h7.2l-27.2 131.2-22.297-131.2h10.297a8 8 0 0 0 0-16h-13.016L95.988 47.047c-.48-23.242-17.547-42.8-40.511-46.422-22.965-3.621-45.223 9.734-52.832 31.703s1.617 46.23 21.902 57.59c20.281 11.36 45.793 6.55 60.547-11.414l38 223.781L88.207 470.43a7.998 7.998 0 0 0 6.207 9.457 8.382 8.382 0 0 0 1.625.144 8.005 8.005 0 0 0 7.824-6.402l26.575-128 21.695 127.77a8.005 8.005 0 0 0 7.906 6.632 8 8 0 0 0 7.895-9.336l-28.551-168.12zm37.914-61.329c17.672 0 32 14.328 32 32s-14.328 32-32 32c-17.676 0-32-14.328-32-32s14.324-32 32-32zm-176 64c-17.676 0-32-14.328-32-32s14.324-32 32-32c17.672 0 32 14.328 32 32s-14.328 32-32 32zM352.04 263.973V208.03c0-.144-.075-.265-.083-.41-.008-.14.059-.254 0-.39l-16-160a7.998 7.998 0 0 0-7.96-7.2 7.997 7.997 0 0 0-7.958 7.2l-16 160c0 .136.047.265 0 .39-.05.129 0 .266 0 .41v55.422c0 .184-.105.336-.113.52a83.067 83.067 0 0 1-22.04 50.937c-23.823 28.617-31.425 65.719-21.991 107.313a191.816 191.816 0 0 0 21.351 54.039 8.008 8.008 0 0 0 11.027 2.574 8.016 8.016 0 0 0 2.575-11.031c-.516-.797-50.465-82.832-.641-142.653a108.547 108.547 0 0 0 23.711-45.12h20.129a108.728 108.728 0 0 0 23.734 45.12c49.832 59.832 0 141.832-.543 142.653a8.011 8.011 0 0 0 2.57 11.03c3.758 2.333 8.696 1.185 11.028-2.573a191.428 191.428 0 0 0 21.297-54.047c9.41-41.602 1.777-78.688-22.047-107.305a83.174 83.174 0 0 1-22.047-50.937zm-24-135.543l7.198 71.601h-14.32zm-8 87.601h16v48h-16zm0 0"/><path d="M213.695 130.375a8 8 0 0 0-11.312 11.313l18.344 18.343-18.344 18.344a8.001 8.001 0 0 0-2.344 5.656v40h-8a8 8 0 0 0-8 8v176a8 8 0 0 0 8 8h8v40a8 8 0 0 0 2.344 5.656l16 16a8 8 0 0 0 11.312-11.312l-13.656-13.656V416.03h8a8 8 0 0 0 8-8v-176a8 8 0 0 0-8-8h-8v-36.687l21.656-21.656a8.004 8.004 0 0 0 0-11.313zm2.344 269.656h-16v-160h16zm0 0"/></svg>