<svg height="1420" viewBox="-81 -33 1065 1065" width="1420" xmlns="http://www.w3.org/2000/svg"><path d="M857.219 215.324h-20.176v-61.543c0-8.074-6.547-14.625-14.625-14.625-8.074 0-14.625 6.551-14.625 14.625v61.543h-20.172c-22.547 0-40.89 18.348-40.89 40.899v57.78c0 8.071 6.539 14.63 14.624 14.63 8.075 0 14.63-6.559 14.63-14.63v-57.78c0-6.426 5.21-11.649 11.636-11.649h69.598c6.414 0 11.64 5.223 11.64 11.649v206.84c0 6.41-5.226 11.64-11.64 11.64H787.62c-6.426 0-11.637-5.23-11.637-11.64v-86.028c0-8.078-6.554-14.625-14.629-14.625-8.085 0-14.625 6.547-14.625 14.625v86.028c0 22.546 18.344 40.89 40.891 40.89h16.887v295.485c0 92.48-75.25 167.73-167.73 167.73H458.43c-92.493 0-167.739-75.25-167.739-167.73V638.741h67.797c31.293 0 56.75-25.457 56.75-56.75v-25.555c77.563-5.792 98.594-47.69 102.106-83.277l7.48-75.836c0-.02.008-.043.008-.07l6.816-69.05v-.028l6.82-69.067v-.039l13.634-138.172v-.011l4.82-48.813c1.871-18.918-4.387-37.844-17.14-51.933-12.766-14.078-30.985-22.16-49.993-22.16H62.352c-19.004 0-37.227 8.078-49.997 22.16C-.402 34.234-6.648 53.156-4.777 72.074L34.805 473.16c3.5 35.586 24.53 77.48 102.101 83.278v25.554c0 31.293 25.453 56.75 56.75 56.75h67.785v160.692c0 108.617 88.371 196.984 196.989 196.984h178.347c108.621 0 196.985-88.36 196.985-196.984v-295.48h23.457c22.547 0 40.89-18.356 40.89-40.903V256.21c0-22.543-18.343-40.887-40.89-40.887zM63.906 470.293l-33.183-336.27h99.937c8.082 0 14.625-6.546 14.625-14.625 0-8.082-6.543-14.625-14.625-14.625H27.836L24.324 69.2c-1.074-10.875 2.38-21.312 9.719-29.414 7.328-8.097 17.383-12.55 28.309-12.55h427.437c10.926 0 20.984 4.453 28.313 12.55 7.336 8.102 10.78 18.54 9.71 29.414l-3.507 35.574H213.39c-8.075 0-14.625 6.543-14.625 14.625 0 8.079 6.55 14.625 14.625 14.625h308.027l-3.93 39.844h-51.316c-8.078 0-14.625 6.555-14.625 14.625 0 8.086 6.547 14.625 14.625 14.625h48.426l-3.938 39.856H408.422c-8.086 0-14.625 6.543-14.625 14.625s6.539 14.625 14.625 14.625h99.351l-3.93 39.851h-36c-8.081 0-14.624 6.547-14.624 14.625 0 8.07 6.543 14.625 14.625 14.625h33.117l-3.93 39.848h-88.61c-8.085 0-14.624 6.55-14.624 14.625s6.539 14.629 14.625 14.629h85.723l-5.907 59.867c-2.445 24.719-14.61 57.59-91.82 57.59h-240.7c-77.206 0-89.374-32.871-91.812-57.59zm102.25 111.7v-24.86h219.828v24.86c0 15.155-12.336 27.495-27.496 27.495H193.645c-15.16 0-27.489-12.34-27.489-27.496zm0 0"/></svg>