<svg height="1063pt" viewBox="-231 -33 1063 1063.746" width="1063pt" xmlns="http://www.w3.org/2000/svg"><path d="M78.848 681.496c15.203 32.91 60.699 36.508 80.847 6.277l25.871-38.808c184.68-52.809 217.618-196.45 163.832-384.07-1.87-6.512 2.653-17.313 17.29-8.11.28.176.742.52 1.378 1.14 97.567 96.442 72.297 233.759-79.515 432.153-4.75 6.203-3.774 15.047 2.21 20.067 5.997 5.039 14.86 4.437 20.141-1.297C429.23 580.19 533.414 415.778 476.816 250.234c-27.406-80.175-102.754-122.41-187.761-122.41-8.075.035-14.582 6.598-14.567 14.66.035 8.055 6.57 14.563 14.614 14.563 28.324.851 51.546 3.82 81.382 16.7 90.575 39.081 107.778 156.03 82.465 251.323 9.305-73.347-12.27-136.457-64.351-187.93-11.825-11.671-32.63-18.128-49.63-8.62-15.179 8.484-22.597 27.168-17.656 44.425 61.997 216.27-10.292 311.657-148.718 349.305-9.192 2.5-9.254 9.3-37.211 49.316a17.192 17.192 0 0 1-19.031 7.036c-10.215-2.88-15.43-14.141-11.004-23.801 17.332-37.824 46.617-86.739 34.207-191.426l76.457 53.684c19.613 13.996 46.629 10.683 61.488-7.543 15.953-19.567 12.754-53.067-9.691-68.844l-30.672-21.3c-44.54-32.165-70.469-83.56-69.356-137.49.965-46.589 13.828-87.015 57.196-110.808 7.07-3.879 9.664-12.765 5.777-19.832-3.883-7.078-12.762-9.672-19.832-5.785-35.117 19.273-59.723 52.602-67.527 91.461-17.672 88.027 15.863 162.328 76.75 206.227 2.523 1.78-8.739-6.079 30.878 21.44 8.29 6.063 9.227 19.845 3.829 26.474-5.07 6.21-14.875 7.21-21.957 2.152l-81.868-57.473c-18.68-13.336-44.312 2.13-41.273 24.899 20.39 152.683-53.258 172.523-30.906 220.86zm0 0"/><path d="M329.777 822.773c-.195.067-13.007-1.015-15.73 11.497l-49.613 69.378c-47.57 66.528-118.297 62.227-118.547 62.293-77.223 0-137.692-68.238-127.262-150.507 6.64-52.336 5.41-108.829-3.66-167.895-1.227-7.969-8.7-13.445-16.656-12.215-7.98 1.227-13.454 8.676-12.227 16.653 8.66 56.382 9.86 110.14 3.563 159.789-7.31 57.52 14.152 112.863 57.375 148.035 28.84 23.465 62.101 35.355 98.867 35.355h.129c55.691-.047 108.855-27.894 142.183-74.515l53.461-74.762c6.899-9.645-.004-23.106-11.883-23.106zm221.61-675.902C501.398 36.481 381.52-23.273 266.39 4.777c-64.832 15.79-115.547 49.032-156.079 94.547-27.878 31.29-63.14 48.578-104.808 51.39-8.05.552-14.137 7.509-13.594 15.556.55 8.054 7.547 14.097 15.563 13.597 48.87-3.293 91.976-24.422 124.656-61.117C256.234-20.605 455.254 5.414 524.773 158.926 647.691 430.398 376.063 740.832 365.871 761.8c-6.96 9.722.133 23.105 11.875 23.105 4.55 0 9.04-2.133 11.895-6.113 62.894-87.984 59.554-83.277 59.914-83.828C558.129 527.172 633.844 328.969 551.387 146.87zm0 0"/></svg>