<svg height="512pt" viewBox="0 -4 512 512" width="512pt" xmlns="http://www.w3.org/2000/svg"><path d="M303.094 174.25a7.498 7.498 0 0 0 10.445-1.84l15.953-22.789a7.495 7.495 0 0 0-1.84-10.445 7.5 7.5 0 0 0-10.445 1.844l-15.957 22.785a7.5 7.5 0 0 0 1.844 10.445zm38.578-18.266l-5.418 27.286c-.918 4.64 2.633 8.96 7.367 8.96a7.5 7.5 0 0 0 7.348-6.039l5.414-27.289a7.497 7.497 0 0 0-5.895-8.816 7.497 7.497 0 0 0-8.816 5.898zM309.59 121.45a7.499 7.499 0 0 0-10.3-2.528l-23.79 14.422a7.506 7.506 0 0 0-2.527 10.304 7.506 7.506 0 0 0 10.304 2.524l23.79-14.418a7.501 7.501 0 0 0 2.523-10.305zM83.652 152.18a10.213 10.213 0 0 0 8.97 0c7-3.453 29.835-16.508 29.835-39.465 0-18.203-21.215-27.067-34.312-16.074-5.063-4.262-11.942-5.891-18.754-4.09-9.317 2.457-15.57 10.562-15.57 20.164 0 23.015 22.843 36.031 29.831 39.465zm-3.777-42.368c1.398 2.47 4.469 4.626 8.023 4.711 3.582.114 6.973-2.046 8.461-4.652 3.055-5.355 11.098-3.144 11.098 2.848 0 12.691-13.394 21.566-19.324 24.875-5.93-3.293-19.313-12.145-19.313-24.875 0-6.043 8.086-8.133 11.055-2.906zm61.265-6.195h29.637c4.145 0 7.5-3.355 7.5-7.5a7.5 7.5 0 0 0-7.5-7.5h-29.636a7.5 7.5 0 0 0-7.5 7.5c0 4.145 3.355 7.5 7.5 7.5zm0 26.41h29.637c4.145 0 7.5-3.355 7.5-7.5 0-4.144-3.355-7.5-7.5-7.5h-29.636a7.497 7.497 0 0 0-7.5 7.5 7.5 7.5 0 0 0 7.5 7.5zm0 26.411h29.637c4.145 0 7.5-3.356 7.5-7.5s-3.355-7.5-7.5-7.5h-29.636c-4.145 0-7.5 3.355-7.5 7.5s3.355 7.5 7.5 7.5zm354.63-141.43c4.144 0 7.5-3.356 7.5-7.5 0-4.145-3.356-7.5-7.5-7.5h-73.711c-.118 0-.23.012-.348.015a7.488 7.488 0 0 0-6.54 3.184l-25.89 36.973-32.84-22.996C339.071 5.02 317.54.894 296.848 5.644l-2.598-1.82c-9.59-6.71-22.816-4.347-29.5 5.2l-5.969 8.523c-6.695 9.562-4.363 22.8 5.203 29.496l2.047 1.434c-6.86 30.617 26.864 54.082 53.18 37.238l4.191 2.933c-6.851 30.57 26.805 54.118 53.176 37.239l4.195 2.933c-6.859 30.618 26.864 54.078 53.176 37.235l2.055 1.441c9.566 6.695 22.8 4.363 29.496-5.203l5.969-8.523c6.695-9.563 4.363-22.801-5.2-29.497l-3.273-2.293c-2.613-21.066-13.855-39.886-31.226-52.054l-30.2-21.14 23.653-33.778zM280.312 58.48l24.622 17.243a20.041 20.041 0 0 1-24.622-17.243zm57.368 40.168l24.625 17.243a20.04 20.04 0 0 1-24.625-17.243zm57.37 40.172c14.919 10.446 9.778 6.844 24.626 17.243a20.042 20.042 0 0 1-24.625-17.243zm64.13 6.344l-5.97 8.524a6.188 6.188 0 0 1-8.605 1.519c-2.41-1.687-169.859-118.941-172.02-120.45-2.769-1.94-3.456-5.831-1.515-8.605l5.97-8.523c1.948-2.781 5.843-3.45 8.605-1.516l172.02 120.446c2.773 1.941 3.456 5.836 1.515 8.605zm-14.903-36.289c-7.894-5.531-125.047-87.559-128.71-90.125a59.34 59.34 0 0 1 32.273 10.723l75.324 52.742a59.356 59.356 0 0 1 21.113 26.66zm46.543 201.641H273.5a7.5 7.5 0 0 0-7.5 7.5 7.5 7.5 0 0 0 7.5 7.504h217.32c3.407 0 6.18 2.77 6.18 6.175v13.68a6.188 6.188 0 0 1-6.18 6.18H21.18a6.186 6.186 0 0 1-6.18-6.18v-13.68c0-3.406 2.773-6.175 6.18-6.175H238.5a7.5 7.5 0 0 0 7.5-7.504 7.5 7.5 0 0 0-7.5-7.5h-85.355c.597-1.954.925-4.028.925-6.176v-13.68c0-11.68-9.5-21.18-21.18-21.18H21.18C9.5 269.48 0 278.98 0 290.66v13.68c0 5.215 1.902 9.984 5.04 13.68A21.041 21.041 0 0 0 0 331.695v13.68c0 11.328 8.945 20.578 20.137 21.129v6.61c0 11.679 9.504 21.179 21.18 21.179H62.03v95.14c0 7.88 6.41 14.29 14.293 14.29h14.153c7.878 0 14.293-6.41 14.293-14.29v-95.14h302.46v95.14c0 7.88 6.41 14.29 14.293 14.29h14.153c7.883 0 14.293-6.41 14.293-14.29v-95.14h20.71c11.68 0 21.18-9.5 21.18-21.18v-6.61c11.196-.55 20.141-9.8 20.141-21.128v-13.68c0-11.675-9.5-21.18-21.18-21.18zM15 290.66a6.188 6.188 0 0 1 6.18-6.18h111.71a6.188 6.188 0 0 1 6.18 6.18v13.68a6.188 6.188 0 0 1-6.18 6.18H21.18a6.188 6.188 0 0 1-6.18-6.18zm74.766 198.063H77.03v-94.43h12.735zm345.203 0H422.23v-94.43h12.739zm41.89-115.61c0 3.407-2.77 6.18-6.18 6.18H41.317a6.188 6.188 0 0 1-6.18-6.18v-6.558H476.86zm0 0"/><path d="M228.96 112.527a7.5 7.5 0 0 0 7.5-7.5V63.891c0-16.317-13.273-29.594-29.589-29.594H29.59C13.273 34.297 0 47.57 0 63.89v117.277c0 16.316 13.273 29.59 29.59 29.59h177.28c16.316 0 29.594-13.274 29.594-29.59v-41.14a7.503 7.503 0 0 0-15.004 0v41.14c0 8.043-6.547 14.59-14.59 14.59H29.59c-8.043 0-14.59-6.547-14.59-14.59V63.891c0-8.047 6.547-14.594 14.59-14.594h177.28c8.043 0 14.59 6.547 14.59 14.594v41.136c0 4.141 3.36 7.5 7.5 7.5zm0 0"/><path d="M34.773 61.57a7.5 7.5 0 0 0-7.5 7.5v106.914c0 4.145 3.356 7.5 7.5 7.5h166.915c4.144 0 7.5-3.355 7.5-7.5V69.07a7.5 7.5 0 0 0-7.5-7.5zm159.415 106.914H42.273V76.57h151.915zm0 0"/></svg>