<svg version="1.1" id="Capa_1" xmlns="http://www.w3.org/2000/svg" x="0" y="0" viewBox="0 0 31 31" xml:space="preserve"><style>.st0{fill:#27598d}</style><path class="st0" d="M25.1 21.5c-.1 0-.2 0-.3-.1L19 16c-.2-.2-.2-.5 0-.7.2-.2.5-.2.7 0l5.8 5.4c.2.2.2.5 0 .7-.1.1-.3.1-.4.1zm-19.2 0c-.1 0-.3-.1-.4-.2-.2-.2-.2-.5 0-.7l5.8-5.4c.2-.2.5-.2.7 0 .2.2.2.5 0 .7l-5.8 5.4c-.1.2-.2.2-.3.2z"/><path class="st0" d="M28.5 26.5h-26C1.1 26.5 0 25.4 0 24V7c0-1.4 1.1-2.5 2.5-2.5h26C29.9 4.5 31 5.6 31 7v17c0 1.4-1.1 2.5-2.5 2.5zm-26-21C1.7 5.5 1 6.2 1 7v17c0 .8.7 1.5 1.5 1.5h26c.8 0 1.5-.7 1.5-1.5V7c0-.8-.7-1.5-1.5-1.5h-26z"/><path class="st0" d="M15.5 18c-.7 0-1.3-.2-1.8-.7L.8 6.2c-.2-.2-.2-.5 0-.8.2-.2.5-.2.7 0l12.8 11.2c.6.6 1.7.6 2.4 0L29.5 5.4c.2-.2.5-.2.7 0 .2.2.2.5 0 .7L17.3 17.4c-.5.4-1.1.6-1.8.6z"/></svg>